<mxfile host="app.diagrams.net" modified="2020-12-17T19:51:41.543Z" agent="5.0 (X11; Linux x86_64) AppleWebKit/537.36 (KHTML, like Gecko) Chrome/78.0.3904.70 Safari/537.36" etag="mwAzBhzRkbIPyNvtQdHp" version="14.0.4" type="github">
  <diagram id="b0tf5quqL8-MCJ5gDnDx" name="Page-1">
    <mxGraphModel dx="1355" dy="806" grid="1" gridSize="10" guides="1" tooltips="1" connect="1" arrows="1" fold="1" page="1" pageScale="1" pageWidth="827" pageHeight="1169" math="0" shadow="0">
      <root>
        <mxCell id="0" />
        <mxCell id="1" parent="0" />
        <mxCell id="pmT2QdVK1knbCTIYLekC-1" value="" style="rounded=0;whiteSpace=wrap;html=1;" parent="1" vertex="1">
          <mxGeometry x="40" y="10" width="1130" height="540" as="geometry" />
        </mxCell>
        <mxCell id="pmT2QdVK1knbCTIYLekC-2" value="Админка" style="text;html=1;strokeColor=none;fillColor=none;align=center;verticalAlign=middle;whiteSpace=wrap;rounded=0;" parent="1" vertex="1">
          <mxGeometry x="615" y="10" width="40" height="20" as="geometry" />
        </mxCell>
        <mxCell id="pmT2QdVK1knbCTIYLekC-3" value="" style="rounded=1;whiteSpace=wrap;html=1;" parent="1" vertex="1">
          <mxGeometry x="80" y="50" width="460" height="310" as="geometry" />
        </mxCell>
        <mxCell id="pmT2QdVK1knbCTIYLekC-4" value="Бронирование" style="text;html=1;strokeColor=none;fillColor=none;align=center;verticalAlign=middle;whiteSpace=wrap;rounded=0;" parent="1" vertex="1">
          <mxGeometry x="250" y="60" width="40" height="20" as="geometry" />
        </mxCell>
        <mxCell id="pmT2QdVK1knbCTIYLekC-5" value="Возможные даты бронирования" style="text;html=1;strokeColor=none;fillColor=none;align=center;verticalAlign=middle;whiteSpace=wrap;rounded=0;" parent="1" vertex="1">
          <mxGeometry x="170" y="80" width="220" height="20" as="geometry" />
        </mxCell>
        <mxCell id="pmT2QdVK1knbCTIYLekC-6" value="1.&amp;nbsp;" style="text;html=1;strokeColor=none;fillColor=none;align=center;verticalAlign=middle;whiteSpace=wrap;rounded=0;" parent="1" vertex="1">
          <mxGeometry x="90" y="110" width="40" height="20" as="geometry" />
        </mxCell>
        <mxCell id="pmT2QdVK1knbCTIYLekC-7" value="12.10.2020" style="rounded=0;whiteSpace=wrap;html=1;" parent="1" vertex="1">
          <mxGeometry x="150" y="110" width="130" height="20" as="geometry" />
        </mxCell>
        <mxCell id="pmT2QdVK1knbCTIYLekC-8" value="с" style="text;html=1;strokeColor=none;fillColor=none;align=center;verticalAlign=middle;whiteSpace=wrap;rounded=0;" parent="1" vertex="1">
          <mxGeometry x="120" y="110" width="40" height="20" as="geometry" />
        </mxCell>
        <mxCell id="gVkcCGGmK2Fdc83e79nt-5" value="" style="edgeStyle=orthogonalEdgeStyle;rounded=0;orthogonalLoop=1;jettySize=auto;html=1;fontColor=#3333FF;" parent="1" source="pmT2QdVK1knbCTIYLekC-9" target="gVkcCGGmK2Fdc83e79nt-4" edge="1">
          <mxGeometry relative="1" as="geometry" />
        </mxCell>
        <mxCell id="pmT2QdVK1knbCTIYLekC-9" value="по" style="text;html=1;strokeColor=none;fillColor=none;align=center;verticalAlign=middle;whiteSpace=wrap;rounded=0;" parent="1" vertex="1">
          <mxGeometry x="290" y="110" width="40" height="20" as="geometry" />
        </mxCell>
        <mxCell id="pmT2QdVK1knbCTIYLekC-10" value="30.10.2020" style="rounded=0;whiteSpace=wrap;html=1;" parent="1" vertex="1">
          <mxGeometry x="330" y="110" width="130" height="20" as="geometry" />
        </mxCell>
        <mxCell id="pmT2QdVK1knbCTIYLekC-13" value="1.12.2020" style="rounded=0;whiteSpace=wrap;html=1;" parent="1" vertex="1">
          <mxGeometry x="150" y="140" width="130" height="20" as="geometry" />
        </mxCell>
        <mxCell id="pmT2QdVK1knbCTIYLekC-14" value="с" style="text;html=1;strokeColor=none;fillColor=none;align=center;verticalAlign=middle;whiteSpace=wrap;rounded=0;" parent="1" vertex="1">
          <mxGeometry x="120" y="140" width="40" height="20" as="geometry" />
        </mxCell>
        <mxCell id="pmT2QdVK1knbCTIYLekC-15" value="по" style="text;html=1;strokeColor=none;fillColor=none;align=center;verticalAlign=middle;whiteSpace=wrap;rounded=0;" parent="1" vertex="1">
          <mxGeometry x="290" y="140" width="40" height="20" as="geometry" />
        </mxCell>
        <mxCell id="pmT2QdVK1knbCTIYLekC-16" value="15.12.2020" style="rounded=0;whiteSpace=wrap;html=1;" parent="1" vertex="1">
          <mxGeometry x="330" y="140" width="130" height="20" as="geometry" />
        </mxCell>
        <mxCell id="pmT2QdVK1knbCTIYLekC-17" value="2." style="text;html=1;strokeColor=none;fillColor=none;align=center;verticalAlign=middle;whiteSpace=wrap;rounded=0;" parent="1" vertex="1">
          <mxGeometry x="90" y="140" width="40" height="20" as="geometry" />
        </mxCell>
        <mxCell id="pmT2QdVK1knbCTIYLekC-18" value="" style="shape=cross;whiteSpace=wrap;html=1;" parent="1" vertex="1">
          <mxGeometry x="470" y="110" width="20" height="20" as="geometry" />
        </mxCell>
        <mxCell id="pmT2QdVK1knbCTIYLekC-21" value="" style="rounded=0;whiteSpace=wrap;html=1;" parent="1" vertex="1">
          <mxGeometry x="500" y="117.5" width="20" height="5" as="geometry" />
        </mxCell>
        <mxCell id="pmT2QdVK1knbCTIYLekC-22" value="" style="shape=cross;whiteSpace=wrap;html=1;" parent="1" vertex="1">
          <mxGeometry x="470" y="140" width="20" height="20" as="geometry" />
        </mxCell>
        <mxCell id="pmT2QdVK1knbCTIYLekC-23" value="" style="rounded=0;whiteSpace=wrap;html=1;" parent="1" vertex="1">
          <mxGeometry x="500" y="147.5" width="20" height="5" as="geometry" />
        </mxCell>
        <mxCell id="pmT2QdVK1knbCTIYLekC-24" value="1.12.2020" style="rounded=0;whiteSpace=wrap;html=1;" parent="1" vertex="1">
          <mxGeometry x="150" y="170" width="130" height="20" as="geometry" />
        </mxCell>
        <mxCell id="pmT2QdVK1knbCTIYLekC-25" value="с" style="text;html=1;strokeColor=none;fillColor=none;align=center;verticalAlign=middle;whiteSpace=wrap;rounded=0;" parent="1" vertex="1">
          <mxGeometry x="120" y="170" width="40" height="20" as="geometry" />
        </mxCell>
        <mxCell id="pmT2QdVK1knbCTIYLekC-26" value="по" style="text;html=1;strokeColor=none;fillColor=none;align=center;verticalAlign=middle;whiteSpace=wrap;rounded=0;" parent="1" vertex="1">
          <mxGeometry x="290" y="170" width="40" height="20" as="geometry" />
        </mxCell>
        <mxCell id="pmT2QdVK1knbCTIYLekC-27" value="15.12.2020" style="rounded=0;whiteSpace=wrap;html=1;" parent="1" vertex="1">
          <mxGeometry x="330" y="170" width="130" height="20" as="geometry" />
        </mxCell>
        <mxCell id="pmT2QdVK1knbCTIYLekC-28" value="3." style="text;html=1;strokeColor=none;fillColor=none;align=center;verticalAlign=middle;whiteSpace=wrap;rounded=0;" parent="1" vertex="1">
          <mxGeometry x="90" y="170" width="40" height="20" as="geometry" />
        </mxCell>
        <mxCell id="pmT2QdVK1knbCTIYLekC-29" value="" style="shape=cross;whiteSpace=wrap;html=1;" parent="1" vertex="1">
          <mxGeometry x="470" y="170" width="20" height="20" as="geometry" />
        </mxCell>
        <mxCell id="pmT2QdVK1knbCTIYLekC-30" value="" style="rounded=0;whiteSpace=wrap;html=1;" parent="1" vertex="1">
          <mxGeometry x="500" y="177.5" width="20" height="5" as="geometry" />
        </mxCell>
        <mxCell id="pmT2QdVK1knbCTIYLekC-32" value="" style="rounded=1;whiteSpace=wrap;html=1;" parent="1" vertex="1">
          <mxGeometry x="560" y="50" width="580" height="310" as="geometry" />
        </mxCell>
        <mxCell id="pmT2QdVK1knbCTIYLekC-33" value="Заказы" style="text;html=1;strokeColor=none;fillColor=none;align=center;verticalAlign=middle;whiteSpace=wrap;rounded=0;" parent="1" vertex="1">
          <mxGeometry x="870" y="60" width="40" height="20" as="geometry" />
        </mxCell>
        <mxCell id="gVkcCGGmK2Fdc83e79nt-1" value="Продавец выставляет возможные даты бронирования яхты" style="text;html=1;strokeColor=none;fillColor=none;align=center;verticalAlign=middle;whiteSpace=wrap;rounded=0;fontColor=#3333FF;" parent="1" vertex="1">
          <mxGeometry x="130" y="330" width="350" height="20" as="geometry" />
        </mxCell>
        <mxCell id="gVkcCGGmK2Fdc83e79nt-2" value="В заказе отображать на какие даты забронирована яхта, а также ее месторасположение на начала бронирования и на конец.&amp;nbsp;" style="text;html=1;strokeColor=none;fillColor=none;align=center;verticalAlign=middle;whiteSpace=wrap;rounded=0;fontColor=#3333FF;" parent="1" vertex="1">
          <mxGeometry x="610" y="320" width="410" height="20" as="geometry" />
        </mxCell>
        <mxCell id="gVkcCGGmK2Fdc83e79nt-4" value="по" style="text;html=1;strokeColor=none;fillColor=none;align=center;verticalAlign=middle;whiteSpace=wrap;rounded=0;" parent="1" vertex="1">
          <mxGeometry x="410" y="110" width="40" height="20" as="geometry" />
        </mxCell>
        <mxCell id="gVkcCGGmK2Fdc83e79nt-6" value="12.10.2020" style="rounded=0;whiteSpace=wrap;html=1;" parent="1" vertex="1">
          <mxGeometry x="670" y="170" width="130" height="20" as="geometry" />
        </mxCell>
        <mxCell id="gVkcCGGmK2Fdc83e79nt-7" value="с" style="text;html=1;strokeColor=none;fillColor=none;align=center;verticalAlign=middle;whiteSpace=wrap;rounded=0;" parent="1" vertex="1">
          <mxGeometry x="640" y="170" width="40" height="20" as="geometry" />
        </mxCell>
        <mxCell id="gVkcCGGmK2Fdc83e79nt-8" value="по" style="text;html=1;strokeColor=none;fillColor=none;align=center;verticalAlign=middle;whiteSpace=wrap;rounded=0;" parent="1" vertex="1">
          <mxGeometry x="810" y="170" width="40" height="20" as="geometry" />
        </mxCell>
        <mxCell id="gVkcCGGmK2Fdc83e79nt-9" value="30.10.2020" style="rounded=0;whiteSpace=wrap;html=1;" parent="1" vertex="1">
          <mxGeometry x="850" y="170" width="130" height="20" as="geometry" />
        </mxCell>
        <mxCell id="gVkcCGGmK2Fdc83e79nt-11" value="остальная инфа о заказе" style="text;html=1;strokeColor=none;fillColor=none;align=center;verticalAlign=middle;whiteSpace=wrap;rounded=0;" parent="1" vertex="1">
          <mxGeometry x="640" y="117.5" width="190" height="20" as="geometry" />
        </mxCell>
        <mxCell id="gVkcCGGmK2Fdc83e79nt-12" value="Расположение на начало" style="text;html=1;strokeColor=none;fillColor=none;align=center;verticalAlign=middle;whiteSpace=wrap;rounded=0;fontColor=#000000;" parent="1" vertex="1">
          <mxGeometry x="585" y="210" width="100" height="20" as="geometry" />
        </mxCell>
        <mxCell id="gVkcCGGmK2Fdc83e79nt-13" value="Барселона, Испания" style="rounded=0;whiteSpace=wrap;html=1;fontColor=#000000;" parent="1" vertex="1">
          <mxGeometry x="700" y="210" width="280" height="20" as="geometry" />
        </mxCell>
        <mxCell id="gVkcCGGmK2Fdc83e79nt-14" value="Расположение на окончание" style="text;html=1;strokeColor=none;fillColor=none;align=center;verticalAlign=middle;whiteSpace=wrap;rounded=0;fontColor=#000000;" parent="1" vertex="1">
          <mxGeometry x="585" y="250" width="100" height="20" as="geometry" />
        </mxCell>
        <mxCell id="gVkcCGGmK2Fdc83e79nt-15" value="Мурманск, Россия" style="rounded=0;whiteSpace=wrap;html=1;fontColor=#000000;" parent="1" vertex="1">
          <mxGeometry x="700" y="250" width="280" height="20" as="geometry" />
        </mxCell>
        <mxCell id="gVkcCGGmK2Fdc83e79nt-16" value="" style="rounded=0;whiteSpace=wrap;html=1;fontColor=#000000;" parent="1" vertex="1">
          <mxGeometry x="40" y="600" width="660" height="510" as="geometry" />
        </mxCell>
        <mxCell id="gVkcCGGmK2Fdc83e79nt-17" value="Front end" style="text;html=1;strokeColor=none;fillColor=none;align=center;verticalAlign=middle;whiteSpace=wrap;rounded=0;fontColor=#000000;fontStyle=1;fontSize=18;" parent="1" vertex="1">
          <mxGeometry x="328.75" y="610" width="110" height="20" as="geometry" />
        </mxCell>
        <mxCell id="gVkcCGGmK2Fdc83e79nt-18" value="" style="rounded=1;whiteSpace=wrap;html=1;fontSize=18;fontColor=#000000;" parent="1" vertex="1">
          <mxGeometry x="70" y="650" width="610" height="410" as="geometry" />
        </mxCell>
        <mxCell id="gVkcCGGmK2Fdc83e79nt-19" value="Бронирования яхты" style="text;html=1;strokeColor=none;fillColor=none;align=center;verticalAlign=middle;whiteSpace=wrap;rounded=0;fontSize=18;fontColor=#000000;" parent="1" vertex="1">
          <mxGeometry x="290" y="660" width="140" height="20" as="geometry" />
        </mxCell>
        <mxCell id="gVkcCGGmK2Fdc83e79nt-20" value="" style="shape=image;verticalLabelPosition=bottom;labelBackgroundColor=#ffffff;verticalAlign=top;aspect=fixed;imageAspect=0;image=data:image/png,iVBORw0KGgoAAAANSUhEUgAAAh4AAAFJCAIAAABbwrPPAAAgAElEQVR4Aey9C1gT1/b/vYAAo40wFkriAQ0UNeAF8IZ4AYSjWKxgaYWqFVpOvdGftvX89BRb/auvttoX/i9t9ait7aEHrBdoRUFBgwUBL4BVCYoQlQMo1ETgOGDUAYbwPjMJIVxFRa4rD4/Zs2fvtdf+rDjf2ZdJ9BoaGgBfSAAJIAEkgAS6joB+15lCS0gACSABJIAEWAIoLfg5QAJIAAkggS4mgNLSxUDRHBJAAkgACfCeFUFDQwPDNDD1KpWqQYXLNM+KD8sjASSABHoxAX090NfX4/H0eQZ6enp6z+2pXueX8VUNDbW1qjpG9dyNYUUkgASQABLoKwQMefpGRvr6zyUwnZUWhlE9qanvK0TQTySABJAAEugSAoSxgSHvmZdOni4tDQ0NtXWq2jocrHRJmNAIEkACSKCPETAy1Dcy1H+m+bGnaxFTz0pLHyOB7iIBJIAEkEAXEaitUzHMsy2tP0VamHoVjfNgXRQeNIMEkAAS6KME6Np6pv4ZxhhPkZY6HK/00Q8Cuo0EkAAS6FICzyQHHUmLqqGBqX+2QVCXdgSNIQEkgASQQG8hwNQ3qDr9xElH0sLgPuPeElP0AwkgASTQ8wQ6PyfWsbTgkKXnY4keIAEkgAR6CYHOz2N1JC31nR779JJuoxtIAAkgASTw8gjUd3qJpCNpeXn+oWUkgASQABLoxwRQWvpxcLFrSAAJIIGeIYDS0jPcsVUkgASQQD8mgNLSj4OLXUMCSAAJ9AwBlJae4Y6tIgEkgAT6MQGUln4cXOwaEkACSKBnCKC09Ax3bBUJIAEk0I8JoLT04+Bi15AAEkACPUMApaVnuGOrSAAJIIF+TAClpR8HF7uGBJAAEugZAigtPcMdW0UCSAAJ9GMCKC39OLjYNSSABJBAzxBAaekZ7tgqEkACSKAfE+D1475h15AAEui1BKofN4QeqM26Wf+Bp+GaeYY6fjac/feT5dk6GcYwZqTBMl8jHys9nVxM9moCKC29OjzoHBLouwSqHzd89VttsrS++klTJ9734G1caHSjVBX4DV39BOwt9b47WdfQAB+/qasubHljEz1bEwAVlJc33Mir//t/aqrWGS8Voro0wezNKZSW3hwd9A0J9FUC1Y8bFuykSysbZjsY2Fs1TbxPHaWv1pUGgAOfGE8dbeD71ZO4LKa1tFhNMzrua8D2/3H9nj01EUWqPWfq/ZfyjPsqkoHldw9LS26u9OSJ+HMZ6deuSQFg/HjHma5ub873dXBwHFhxwN4igf5F4GgmU1rZsDPQ6B2XZheZJl35lBhjpZ8sZfLLWPnpqPeDDT501d9TpCovUd0FGAlQU1oXcYKJv91QzYCVjcGHvkb+No2jmaLaN/4/plClY09fb+2GQR/9hc2pLqmLOMmcvt1QDWDxmr7XHKO1k/WNAe4mP/E81mDibHT5fdbb8ix6QZSq3FBvbaB+/M/1zaxxhsfMJ46PYd4IZwqteCmfGQ1nTTOrv6w9rYRZ7w7a7wYJ+578/RrMXWrsfrM2QtpQbag30ZEX+o7hGLUw1qvOSur2XKy/8QBgMHfqLcMxgwGgQV1R470hDLcyeO9Nww/t1drccPuPum+SmYsKqOGBrchgqa+Rv1X91o21B6p1+qtO2hle/khv5+e1sY/1v/qa8GeNd+urWdS7tWWAPf/8LvSzdbqNZmSkZWSk7d2za8Pnm0I+WqN7CtNIAAn0IQLJufWWr+p1rCu/ZTKh0bVDBsHXgUbP0LU/a5d/w1x8AsNt9CcaNly8Xf/5t3T5WuIjEacujxvKVQCk3ixL9vDubVVhXaNtee2yb5mrNWA7Wt9lUEPmDdVPkXS18aCvxjfKkrpgNbP1qKocYIK30UcjVKWjGyxUAErVxT8BTPSmcTNytq812tS8N1xMrDutbJEJV07UXDTWdx+vV1iguni+LpCCUx8Zvgaq0wfo1dkAxnoT7PWgjD0VUNIQ/XejCY0jsuE2+mP4UFOlulhUv3N/g/EXxFIzKL9Y8+4BVbUhTBhjYPFEdbag/vOSGmKDoe1I/WlKgLqGvKKGakMYY6NvCmBspddorKVX3XPcY9KyeNHCkyfiAWDJe4HvLQ0aP54dply7Jv3lQNTBX6I/+8f/ZmSkHzwU+2IUGNmxsKM3GI0RI77ZsJGObnOmDidezCzWRgJI4OkELM2aXbJbjFe0unLgU8JkcLOSLU3X1P+UoaoBeM1Kfzg0JMSzujLtHSLKk72XL79Iv3FA9VMSs3SVoQlAjbKhBmC4k9F+fwMA1Z4ddMSfGnvVj/QmTjYYa8ULdTMwBrid9MT7RMPpK/Vfjde9DKpOx7KDD2Mb3lezDcDA4Ks17CJQzR/0pEgVjDaMCm4sXKLj5p91OzMbdI4bWzThHfu70UhDgMq65TvqzubV7SnkbdZnIv4AMNbf/A9u6aimPiK8Zk8pE3GeF+Wp4eDua7x5tB5AQ+yuJ58XqK7cbWClBfR9nfWsZhp9aKsHoIrdRX9eoIq/rb//Q2IpADyoC/o/dRdfMdiy2niCehBY33jpa+3Zy89pxPTyW9JtYc8/vzt5It7U1PTg4V9dXd21p1xd3V1d3d9bGrRk0cITCcf3/PO7j/7nY+3Z50sQ9vODPazZunWPyqTJkthDEBg8teVNx/PZxlpIAAl0ikBpJbtuz66vcPNguroyRmclRtdWYXptwE2Aeqgob7j7BGCQ/kdzDYzr6lNvA+jre9lB+QNu2mukwTRj1eki1ZV6mGUA96tZaTE3aUOrTGwNQ20BHqtuFzKFFQ1Xb7JiUFMDNTqtll+p23qFHU+sXWo4ssNZuqZK9arYY8wNnr6PrSqhoCkbAMZM4bG6AgBmvIX2dWevwJWbDbeBnWEzGcvzV29JMDZYOk1vz28NVwrqqz01F+Saxw3VSqihmIvlAHx9D25ANmaa0eZpDTUPGq7m15eWq9LKWcM1jxoA2uhskx8q1efrH38OAOrpNV/DD0c3LX01FevqVA9IS26uVD0PptaVEwnH9+7Zfe2alKIoV1f30M83urq6Hzz865vec3bu2D7T1f1F110M+SQ5lOM2lJz9llKx74q0dOpsq64mifaQABJol8CXv9a1qSsPHzd8+WvtFwvbmhB70nC1iDNoDGPGcpuPhXqgbHhYA6BSbf2S3qrbWh2XP7ihgmIFw4Js62pbyez8d+2BQk5L9GG4iW59Nl2dXTud2/Q8Ya7xh53eivbwWl1EHoyZb+hbWZPQ3KTFK01uWLzCnnv4WPVQxXpoSjZNWL3GphtqHjZUNVaP3U9rZmwG6S1dYuTDXcDK82s/P8Kc5RQFBsHwTiofwPAR+lYE0FWqG0X1O/ep4B+DPhQ2tvTS3ntAWrTzYK6u7icSji9Z7K/tHbvW4p12MinZ1dV9yXuBB3+JPnki/kWlRWudTQwVmBHKKooGK0KlLLyQfD6vuLKKBlMr8QQPT2cr9UyZsigj5VxOoUIJg8xFY2d6zrQnecDkx0XEXW82wuSNnPfRYkc+ANBlfySnXb1dVsUYD7Wym+jhNkGomXQrTPguNueRdlFRXzg9eLm7oN0q1LW4Q2eVEwMWTxXwQFUk2XuY9lzva88D1QPp8QNpjMsSvynmPGjy8BVzy1HTPN3GmRtxHp7lL1k5x1J9U1Ke8a9/l05atdhxsPx8ZGTZxDUBE1hf4fGtxMjDeSazlwdOIwGgVi5NT72cX1pZxzMVWDvOnDNVxBVrxg0PkMALEcgvVdlb6Y+x0m8xXvnuZN3PqUyb0mI71/iUeoeYbsvGekMMAer0li41dNddTDDQG8sd3i4H0NezstCto043JMTW/lQIttMMN882mCjUrzlPTzqo/Z/JldEHY4AaFdy4xtz25CayWptpkcOo9sSrys0M/q+nPrSav7/L6pxGXUoptuaQwfpD2JyGKoodXal7UK5OD9EzbTQ+9y2j9/7Cbry+mlEb8RNdXkfsnqiK+Jk5+xjmvmP06QSDkUPhbOST5X80VujgXV8/ZI16Gb/h7IEnyy82xF9Vfej90gcuL72B1l3OyEgDgPeWBgHAnj27AODN+b7nLly6lnfzzfm+ALDjq23aAurCrY08b46yqoo2fuUVAqAiM/aolLadHbh89ZrA2VYVF2JTbrHCwZQkH/wthxHPD1yxJvitycStEzFnizSKYurku2J1yCru710XMw08Rn7hUEyWUjRr8fIVywJmCivSo49mV6g9ZBim/pXGWsGzRBopb7cKOd7Hfxov62hCHvdBbOymslByOE3p9M4CVldYD+Ougz3noe80s7Kk2FP5dGPRp73Themn8h42llI9uBx3KK1cOGPhspBlgX8dxVz5Lfa8ovEsviOBLiJQ9t+GP//bsPQbWr1ur54Wex7bhvrTbABUDYXVetOceLOceLNEcPVG/dXyBjBgt2ml3WZnkFxaP1xZr7p9n1Wdua68aUJ9Y2i4cru5rgCYTDa6/KWRvxnUFDGrf2Na77pqw+E/VacVMPdNw2m6OtdY7sbFuovc2n5NSV00N1c20VZvpJ3BcH2ozmNi5dzyTE39gYtsYoydgXYc9ZrIYNpY3rTxvA9d9E0ATmfXVysbSh8D8A3ec+WNHKoHNarMu43NdPrduBuv9z0warmWq9lnDADnMtIBYOfX4SIRuxyy4fNNJ0/EX7+Wq96IDADqdKfRdVhQRculyRfukmNd2L2C5tMD1zgBMZglwLed4jgsM6usAkbx8zJz6sct9HW2YU+YTPB6i5DKDWkAdhSiT5CvDiXV4aknNOxqb2VnU7ZzQmaM4gYqJh6+j+X7z10snOhjywNgGIYgzdS1HvM7UYVnPtn/HfrQb78lEf52XH/osvTYk2UjfRe7WrLTBsq8zBze5EDfydyY1mTcX98oL/klR6a0H9th79UnmZKM3wtIRwe+tJLLuPtHttzqr8s9xNzeRL6zj9ufu9Kvlc4Q4IRhJ2hikc4RqH7MXjpLKxuqHrP7jNe8adje+kon7On7+vIOFDEXj9V4X2O3Ud0uVBUqYcxs3kd/1v39x7rTNQCGqn/tof/F2mooLWd16NeDdPkMQ3cRgKLhp8iacjs9UKjONi7v6zZqbMLb/KEqL4K5kVH7uY3+7qlPvxgb2/A+Y4txOqFrC+A1qF++7cmY16C0tKG8DkxGG/6NXZznfTaRWf2Hauv/S8fb6NXIVTcoMP4Lb8OMJiMXk2r+nsHaKrypqgYY/pq+iQmMMYOL5fVf7Kpx/wuU3qy/0inpYycPf9pHJxgArVTd+BPAUM93wtM71bwfz3OkudY9T9WXVqehoSlIuunna5C+/mvYDa6qioFXrBzn+Ls3jh3o8oK8u/cU/6WoBxWKewxhxoCqvEwOlk7DtVx4r9lP4tb8m02F6bpSKZczwqkizQQYK1Qia7PfC+QU2JoDXcuAEY/XIpQdVgHgWc70cy/bFbMvBxgGEnblgblb8Bxr9c501kO6suzQd1cbnWhgamr5lHog8iDzYLh2kMww7DMAOi+mNO1MDuEcOJGXpJYWSiFXPiqV7I/4vbFUfR3N2HATho05+I4EXpCAyWC9y2GDnrINrNNtGIuMoj/Ri4hnThepTtfBa6/p+881DPU0MC5kctQDbmXDRW6JXmvybpHq4mjY7G+8WVW755oqNhPG2PG+8m3434P1umv46vLGIsPd/qq3DqpOH6n5aTjx4V+a1ku0BpsS+npL/QzZe9W2XmM9jX3v1O640lDN05s2mRf6trqk/twgYr+Qe67lZgMM1ps2g7fW11C781itKIWcQWM+ezbUzwAMYO0Kw+rDdaeL6mP/1Js2zWhLXa1aftpquVleYaGKtaYPw224p2Re/kILAGgvoc1ceakH4x0c1c9Iurq6z3R1O5eRviF0feiGjaampjt3bGfHK9zzkpqHKF/42Ume7exgDxvQN+DxBvFNGocaQBdKIuNv8cXj7SzF1o7kUHn6fm4Bj1OQlgPl5+fB1NBgRDTJTucs0SUXs8rMnRdMfnTqFD1toWXhsdyL+Y6+9twaCAPAs/X4wMtW54sx9IEYDEABDLbzes+D29APUH4p9qTutFqd/EJSrr7LYmch74qOH4LJfv7TzHUynsNh3dqYRgJqAtm3mv4jtacr+aVNZRq56c16f/Ct9xuP2no3ERluXmO4ua1TYMVL2mCke0t1+8QT7yTubnWwwdLgQew+3cbX5Rma1PA5g27NacwFveEzCO0pda7xZOL6ZG0BLiEyOrVLd/eB3rSlg29prDfeHBvr+ywd5KPbpNqGgf4sb+NZ3s0Nskd6PqsG+7TO5nKM/2L41d8Nv2o6y/NZ1HQAQw2jdulcEwDAgPfV1zyd8jqFX36yxe30y2+Qe+ReOxX2Efdc5ImE4zOnTxk/dvSJhOPqaTFtAfXzLi/iFm8QaW5ubv7qULJJVwBUd2X5SlvPxfPcpjiKR1kKgHnMNaI/TCBkykruascoTHn+5WulrZ6F0vHITCjkyUtKmhY7lCXFlcbmQnaJHKhqJe8Vfktp6bAKKPMliTn86X5/HUUSPCCG2Mzwni0oOZV49QFrUX+YwAIqHjwiTPh89Z++sqKqDtSRNCbNzdjuci++7vQvU54p+QMmek0T6txO8AXm/IcVVfqNpkwIpqqcVumU0OkoJpFA5wmov9xlV2KdejaszYq/ZTJncuuf8ih+mzUxs9cT6AFpme/DrtXv3bOLoqj5PgsOHoqd6epmaspujpjp6qbeHkZR1F5uhV9duOsx6g81e5UpK7haXPFA+d/SvJSkK+VqNeGPdXYyuH4iPvOWnFJSd69Kjp24rKhrqQ26DhmNcnYmC1PizsvkFPWgLD81Pr1UMHWaLY9RKq7mFtKWw5um1zT12q0C7E6wpFPF5rPnOesMJMgJXrOtK1OPnVcwAPyxLk6Qk5CYzXmoyE9LOBSXUkC1vvnTdRKYkis5tMPsGZbNZIM3fIqzoDTteHLe3QpldUXx1YSYIyeyy5pkspkNPEACnSbw8TzDIYPgu5N1k9Y/WfoN3frP4/88CY2uBYAPPJp9JjvdQquCpIGPq8HSieyz6LovUxuDpTMMfLXfBKN7DtMvjUAXBfVZ/NPOgx38Jeqj//l4vs+C+T4LWhhQC89MVzfdBypblHmxQ/Opb76lTD4b//OZGkNz20kzJ4pK1bNEhI13gF9G+oVTh84pGWNz0dj5AW7skr52HNOqXZ5w+uIAo+S0s4cuPGSMTa3s3ALdJpiD8mriL2com1m+41vv5W2nCjDyzGMpcmuv9yewmwV01IJv7+1VEnn0RKpl4BxrG+8lCzJSMs/EpFM1PL7gdRc/z2nm+h14yLls6vTXmdzeBN0O6JtP8gvknUvNio9MfATGZlZjvRe7q/cj6BbDNBJ4RgImg/XO/j+Dfk5lsm7VN04PNTPxl1f1/upg8IEHz6pxq2Wz089xYMZbu6iNC9prY402d2aLy3O02G6Vjua12q3Uv07odbBO/vCR9st3urjTGRlpb3rPIUnyRGJy68dWcnOl8+fNoShKPYLp4rbRHBJAAkgACTwvgSGvNF/RacdOD0yIAYD6iUiKoj5atYyidJeaQZu55L3AlzZkaQcGZiMBJIAEkEBXEOiZUQu7vk1Rb3rPvnYtV73cou2L+msrx493OJl0hiS5pXDtOUwgASSABJBAjxLo5Kilx6QFAEpKimdOn1JVVeXq6v4L9yXH7y32z8hIMzU1PXfhkvohyh5liI0jASSABJBAMwJ9QFoAIDdX+qb37KqqKvWKS26u1NTU9GTSmdYLMM06hwdIAAkgASTQEwT6hrSo1SVk5YfXNF/u4rD3+59QV3riA4NtIgEkgASeTqDPSIt23QUAcH3l6YHFEkgACSCBniPQl6Sl5yhhy0gACSABJPAMBDopLT2z+fgZ+oFFkQASQAJIoK8RQGnpaxFDf5EAEkACvZ4ASkuvDxE6iASQABLoawRQWvpaxNBfJIAEkECvJ4DS0utD1IccZORp0XujUorwm5P7UNDQVSTwMgj0b2mhYpaYmPCNmv5IkxFjnReuiZCUvAyYT7OZGDSCb2QiDIpv/1uUn2aiC87ThUm71r4723HECHMTCyuxq29QWFx+l4iBInqlf8gnqwNW7e8RvF3ABk0gASTQNQTa+A7qrjHcq6zwCM2vSzI0VZIjicyRpFw9kBLlK+hVXnaHM1T65oVLdmRrvxGULpKmFElTjsV/ejxhu8cLfmWb6ViXqYLUAluXqWbd0RdsAwkggV5LoH+PWjTYCf9/36+o5v7uX9q7SMwDKDm2P66o10blZTnG5OwKZXWFGBO8WyK7U1F9X5b94yoXEmjp7s925b5os4TzhoTC6luSrc6tf6HmRW1jfSSABPoSgQEhLU0B4ZHixX/3HQ0ANEVVqfPpkqRda+a6jrWwMLcYNcl54bq92RWaGtmhYhO+kUVQZHb0Jz6OFhbCd2PYnzKmZbGbl3mJRwlNLKxGTPFdGZaos7pAF0nCg3wmjbAwNxkhdvQJ2SHR+W3jJk+4FJUd+UWAs4O1iYm5xajpc1d/k8r+jCT7yg/zNDHhmyyMzM/evXK2I+eb27vb4nQaUubHbw/ycWbntUaIHWcHfRaVqx2MqI20+pe6Kr0JAITX2q+DptuQBEFYOgXs/G5joJ/vPBuooLTtzv4mRxr9ic8kCwuhhYPbu9tidWfMKGn0Z0s9ue5bi6fMC9oW33hWd8avInKhuZGJuXNYdk7U2rlTrE0shCOmvP1JVG6XzL216hpmIAEk0JsIDIwJMR3i9JW4tDsAhL2bmx2bXRi51GulRAGEuY3YwbTqRo5k3yfpF4pPSL7W3nrTed/8T2K+DEiSvRmns7d7LdyZSQEQpNCUR8lSIrelJ0l3pR0ItAE6/4clc9dJ5MAjBbY2gyqL0qI3p0kyd0uOB9nqOMElFYmfzA/aK6MBSKG1gJbnpkblpp7O/j45KthaExa6JPr9hbnFpGioKa9IcSUuLLigyiwr3I0AOifsba9tFygghOIxdqAoyD4akZ1ysUqSvmZMy4aajvlCoSkATedK4mR+wWL1zzLznFbsPbJCU+ge907fT/w48EoBjLYWvVIguxIXtvyilDr963J7ACot1Mt/dw7NIwSj7cT1cln64bALZ6W70n4NtGlqSJtiqk6H+mbfALGABEouk+xdnfeAPB/lq/PrzNqymEACSKDfEBgQoxY6fcfCgAULAxb4eDmOn7fj5gi/NfuPbZrOXlllyacUfKHAc2vydVlGSnbu+W+9SKBzI39I1rm5LnwgDD19S37/TvGRgP/s+N9vMike6R56+mbxnVu3byasdiIYefz2nRIain/+dKNEDiK/8At3bl2W5hZk7fa3AUXSxq2HWw4olKlh61ldsX77+0sFd3Lz7l+LCREToIj/bOMhufbjJSsZtjH9Tu5l2a3LUQEiACY/JjqJBqCvJKUrhwps/Xafv3kpPfuSNH2TMwFU5nf/StXWbSNBeK9Z60HyoDh2petY54Uhn+2KTpIqdHraWKc4l/Y5ejP3QvalPOmPi22AkUt27oinACouSq7UCAX2QVE3b2VnZ1zOjV1lz57de1ja5t4EpugmL+RMwZ1L0js3j4Y4EgBlx6ISmjrY2CC+IwEk0K8IDAhpgbIcSWKSJDEp7UK+gga6skgmzZFzV1TxqiMZ0ju34jc4qpcH+ELyFXZooihT379zwR4dvP1TDwE3ksiOOSalAUaHbA9lr9HAE7qHfhe+Zeum5S4kXZRw9CINhPuanSvGcCMCwj4o9ANHAqiUOAk7k9b0otMPHy8DIDxWbwsWc00L5m3d5EMCUJK4JEVjQWu/TzWmLBet8GGHBXRJsRyAmL4h4YLslvRIkGboYWrKjQOq/mxLKBqtAYB49fH0mK1BbjZQmSOJjvgiZIGr2MLh7c/i2dFT04v03rDJjVvUJ2wCQlc5EwCKU5ILNJh7fymR5hZKd/sKudLsyI3tqqK4pXZqjJFeIWudOUuk5ypfB4LtQWFxU0uYQgJIoD8SGBATYsTiI/f3+7HhYyiZJGLdmh2S8Pf9mWEZ210IoBXph36IS5XmFdwsLJYrKPUl9olOsAmhUKjhRBX/h138Jx1d2L0A6hfpErTOhU0ySVGFbO20dWKTdY1nNe/3FGXNcuT/ya9iAEROTpbafNJhkh0Rm0kXFpQwnEEAU3P1FZwtY8w3Zd8YuoarQRcmRUUfS7+SLyssLimT042DBhpAPdGltds8QVh7bdjttSG8Ij8r42x2+qmYuCSZJGJpXvGPKUcCNM4Qo8faNRkROTmZQXYZXVJGAQiByo8/8LPkQo5UVlxSVkQ1Sqbaq+ZtAfCGkmZaS0NNORGtaXS1ZWE8RgJIoL8Q0F4g+0uHOu4HjxTP2xp+I9V1S6bsQGT6RifB7gU+21MpIMXTPdz8vEViQrZ7c0xhx1bYwUPbJerZbPG8EK/XtddTriBP6NCZjb2dvuZS6Z/5BERIlYRgzLSpnot9be0g/bMwSTsjh7Z8Jczt3f3s3f1C1q87vMwzKKYsadeh/ACNItLNr/60VrdAEbfa6/2oQpqwdHKbPsvNf5WYilu3O7MdHG01jHlIAAkMAAIDTFq4iJKmg9h3JUUpL0r2p1IM6bU399dAbnzAZH6xe3P7cSetX7cByKekObmMn7MaHpUZtS+pBKznLnMRvU5ABZhO//TLT9ta09axK3zdnuBl0mU5OWXgLFKfoHKlBeyYw9ZO9JSw0JIfI6VKsA48kr7Xm9MsWpL3mY75tpPUoXcdQuIo0u/HP44EaBfSBY5iAUAZXSWXs4MS7iW7kqkAe81jPzdypJXsvjKRJamI2xdTSMOYtSdSNNscqOizLUdobTeOuUgACQwgAgNjraUpoLTiSuS2/RfZu+zX7cQETT0C4BEkoRlkFMftSejwSXJn37fYqbCbez/fyW0UZte3P163fUdYZOYTvr2vrxMBdPbe0FpD6D0AACAASURBVB9uqO/jqezwuSPMLUZ57chuPiIh3N7ytQSgU3dvipRxc0qKxM3bEigA0s3P+2mPctI0zdknNH7TNyJ/SGk1ZGneIjuPN30Wu5BeEbd9xY74K0UURSkKM6M2ruSeaCEdHO21nGjJzi+iuS3FFZlhGyPYJXrBG17TCYpmZwoJgjRulNVd0ak4ZNFywwQSQAJqAk+5Pe4fmOhD75rEcl3RXm15NgHrQxz5hO8cYUysPCbEQRppL1QWZ/2HEFkCdKAuzmvDVyf5f5OTvXPuqN2kgEezqzM8oVdoqDsBsOq79RKvbelx66YnhdnakcoCWRl71jdwkWaIowXK9960Izjrb5GyoyunSDZbm9LyMnaZR+D79ZeLhQAPtAXbSpBuc6aRianF+xeMz5pmRz4ouCInLYWg0O68ouODLZbGgm/0/QN+OlNzouDtocd8tqQWSzYvlTQbnAk8N2zyb2rXerp19lrHERtIUFLsbBiP9Ard4EsCeHqL+ZnSK5vnTEqaagvy3JwaMxsCGp9ractXzEMCSGAAEhgwoxYGgNMVwtzG0Sv4y6NpP7JXUtJ3V/zuVd5iU6ok+2oJMXXTwe+DRDrX4jY+EaT7dkny3rW+zjYkUFVAit0WbYpKOxDMzYARTuuPph3YuMh9NFlVmFNSM4xtK4Z75KWVKYHv98mJ36+Y52TNo4orwXSMR9D20+eigps2CLSqos2wXn7k153B7mKy6uZFqWLo3B0x4T5DtWcBKHklAM9G3LIvhOOnx9Njvl7h6yIWsF9+Q5BC8XS/NeGnzx1dq9lrxlkxddsauytkqoB9eMd6ot+avWkH2IdaABw2/Bq1NcDZhlDkZOVViRb9EL3ZxXRA3J/o0MUkEkACTyOg19DQ0F6Zh4/q2juF+b2aAJP5xSS3XXTwr9LvvToWypbdyA/znLotm3bcKM0IbZofa1kKj5EAEhioBPAHjAdq5NmnTK7mloHA7Q23Z9OVAUwMu44EkECXEhgwE2JdSq2XG6MvX5Qywrl+3qgsvTxS6B4S6K8EcJq8H0aW8I2602q/WD/sJ3YJCSCB3koA11p6a2TQLySABJBA7yOAay29LyboERJAAkhgYBDAtZaBEWfsJRJAAkigGwmgtHQjbGwKCSABJDAwCKC0DIw4Yy+RABJAAt1IAKWlG2FjU0gACSCBgUEApWVgxBl7iQSQABLoRgIoLd0IG5tCAkgACQwMAigtAyPO2EskgASQQDcSQGnpRtjYFBJAAkhgYBBAaRkYccZeIgEkgAS6kQBKSzfCxqaQABJAAgODAErLwIgz9hIJIAEk0I0EUFq6ETY2hQSQABIYGARQWgZGnLGXSAAJIIFuJIDS0o2wsSkkgASQwMAggNIyMOKMvUQCSAAJdCMBlJZuhI1NIQEkgAQGBgGUloERZ+wlEkACSKAbCaC0dCNsbAoJIAEkMDAIoLQMjDhjL5EAEkAC3UgApaUbYWNTSAAJIIGBQQClZWDEGXuJBJAAEuhGAigt3Qgbm0ICSAAJDAwCKC0DI87YSySABJBANxJAaelG2NgUEkACSGBgEOgZaRk3ZtT4saNbE24vv3VJzEECSAAJIIFeS0CvoaGhPecePqpr79Rz5J9IOL53z+5r16QURXWmuqure+jnG11d3TtTGMsgASSABJBANxAY8ophZ1rpJmk5kXB8yWL/zjjUoszJpGRUlxZM8BAJIAEk0FMEepe0zPOefS4j/c35vhs+3+Tg4DhuzCgAuH7jVgs62vySkuLQz9adPBE/09UtMelMi2JPPyzP+NdPZxUq3YK8se9s8BXr5mC6YwKM7FjY0RuMbiHesFnBwa7mulmYRgJIYCAR6KS08LqHybmMdADY+XW4SGTdpqio3dCKjUhkveHzTSdPxF+/lvs8HtbSDG+k1wdv2Kr7pyq78EtCs2vk8xgdaHUYug7MJi8KcNZIyaMbxw7KBhoE7C8SQALPQ6CbpEXtmlpXOummg4MjAHRyYaalzVqG5hHkq0NJ9TYFFcXTB5SWlpSecswwDBAmQ0lyqLogj+jWT8tTvMPTSAAJ9GIC3XqxMOEbdRMKhq43IAzaa+xxadbZVGmRvOoR8IeNdJg+Z4Ytff7f+9PLmqmPevKHr7iafvaPwnsVSoZvZjNuhoer+NUW0OiyP5LTLt8uq6J5Q4TiKXM8J1sRANBGK3zOI6781duKKoYYamU7wcNtopAtz1TkpSSfzy+uquHxBSMd3ObMsOHKq0p//z4y+4G2M00ze/TTfdPWeo4ETdcCz4h1ra0XU5GfkZ59vbRcWWNoLrKf7DZrgrAkLiL2Ot2sNOftKGXhheTzecWVVTSYWokneHg6c4ialQRlYUbKhZxChRIGmYvsp7nNHGfOXI3ZfaKwWViAdF7qzRw7dEXJ1jadvDjE27rVPkfmv/nn0zJvlMhpPdJshN0MDw9bki2uLMpISc8pLFcyhqSlvYvXrAnm7EeSkcVHHNVxnHReGjLbhq2g6pTnzfuBR0gACUCLq2Q/IULTDGPEa2cfwwNpwqEsZvLchX6iIXXy3FPxCUn8Zf6T/FaNZQAe5sTH3rZ8Z+EkUwDeIPJxfnzMmYpR3r5zR5rpU7KU2PiTRHDgNN3FBqYw+bezcrs3F/uK+IziYvxvcemvhXiJHrbZiiOfkZ87FHON7zx7se8wY2VZTookOl5vWcCEofJzsYlFQq+Fq8RDoTLnVMzxZHKV31gCQPXw0RP+WJ9AN0sDUJWlH0rQBOlxvuRpvr1QOFUMUwuEYdufEKYk9ejJ20LP+UGjh/GeFF2IPxZ/7rUVbt7BH80CVX1JenRKw6xAd2uePhB8qMiMPSolpr8R+PYwgr53KTEhNmXomnmjmllmSpIPHr8tdJsfuOA13sPi7DNJB0/C3/zGz1thzaiAuX0q8hLf992ZAn3gEUMI+CDEGZj/nIrMaquLyvzEQyco29m+QaNMVeWFmWfiYxm/9+dYM9clxzPpiW8F+g0naoouHDsWnznsb25CAJp+wrBTf5PNAeoLf9+f3Wi1M543lsV3JIAEmgg0++/dlP1yUtXK2mcy/NyjHLqGBoJv3Opmlmt9qOM7a8QqguBGUNaTnawvnCorB0eboez9uT6fBzz+kKHkq2pP7X0/tGEGq2eChI6T7C4cKVXUAnerq+kKz9bn43WaNDOEz2OJ8gDaacXoVvZl5VjfwBk2bDm+2MP3UenenOsVE1yFs0LWz9LYeWUIYaDXKPs0rVTxRUJz1iUVReiDZlgw+Om+acw959uTmsc8gmh71MITzQn6yJUYzJ3l20+0PyctukvxrEiSzaEIAIZv/qpmJo2YHrjGCYjBXJdtpzgOy8wqq4BRQh2/lHmZOfXjFs6bzHExGef15gP5zxmX741zH8YaYV7hgT7B185wwlByMDCKtn2ryD1XSM4KfmMCN1DhO74xW/H9sdwiD2vxuLc/HadplB5ibASg+YTQysdAjh5Gvspn/da5JTF/uuc6ncAkEkACjQS6VVoaG33p74+qlcAfwl1Z2myLqSy8VHyvorKKoirkilpG3HzKpXkdquTqrdJyii0sL6VU1gwD0HJi78HlIz+m3GUYhmfpstBNpDbQViuVcvkTqipuV4F2tq6eZgzIKhWY6wPU5sfvOSZjgAFykk+gWH3lfETRwOcPae6U5qhD3+4m/3Dkj6pm2+TaNMJm8mzeWO4/QT1hpylEU1QdX9Asq3n1x3el10sr7lOVDysq78nBzK4DinR5Qd7de4r/UtSDCsU9hjBrXlZ1r0wOlk7Dmz6Or9pYDjmnkNMwrG390LhS9UdseA6rEDy+maXdjL/OEb/KKO5V0GVno7491+guU/OEsax6CMCqlPzc/kOZFQzDGNvMDnDh5E318JGSx+e33dWneN7YBr4jASSgS6Dp/7Jubh9PKyvKKdNh5m33jSk9/8uhyzDS0d5aLLIzNX2U/UtSu/2tuHTwl7P0CKex1jaOYnNT5trRuIq2Cg91fHOZbW39o7JLp5NPpItCvIbL222FZ+32nt/YQTpm9HmE+vbZaJTnB6vcmBpFblKiJNlyuN/YwcBUK6sGkaYtxQzgqb4Ncw342wSmk9Ji1OrKWl5RqW8+VjPw0PGWSyrz4qJPy83GjbMV2dm++pphScLBljvJtVXoQklk/C2+eLydpdjakRwqT2+acdIWes7EYDuv9zws9QBqymXnTsUfJ4LfnwIAr4yZH+SmI1QAPEKjHMLJi4PH1DEPb184dSYx0+ZvM4VAU1QNadnGncjL9Pw5O4zVkEDfIND25bdv+N6el8pbsjK+tYvugohO0fJbeeXCGSv8JplwmY+v0nXQ3o0x9Z/rZXyX4AWu7JACgLl1qfkaNZtJV5TK60lrwVASgHzV1TE35/LdCiDaaWWoUMjLqazm8QWaNunyokqDYXxgqLK79CvDhdx2LHLmlLwryWUKGGsDFWWlYOEibDW593Tf2D1y7fVMB0g7ybLC28phk0VtG6BLCgpg3KIAL26tG6BM1hpMo13VXVm+0tZr+Tx79YetovSxevzQWICdhxxmKYQLRXcZMTchBgD/LSp7SIq4/Q065VolDfmmZuZcdMzNp5fmHpEragmBwLymiGL49o37A5VlJUrT4Xx4XFFcDkKROTtp9+oUZ/uc6JK71Ewh/16p3FA4qbWIdsbzVh5hBhJAAuz/6X5GgXlcIUvPLBk0UjTkIUU9aPx7xC4FP36gpBkYQpK8isLcW3JKSd3LP5+UWdJ8bkYXCH+ouXHVbalMTlU/kBdeTEwvqNE9zaWZuxlxh+LSbrFlyvIu5pUTVsPIdlshRjlPJmWSuPOczYrCi4kxh0/mVDDAKC4fi45Lzrv3QEnJCzOvlvKEAjOGVly9cE1pKRpGa/rS1JHO+NbK2c5lqBhl2cW0XKWlzXCmieGDKpoBFa2klAwQ5FBSefe6tOyBkqoovprw+7X2v7xHf6jZq0xZwdXiigfK/5bmpSRdKW9NnD/Wxcngxqn47FsV1IOKu1clCZmUreukYU9zWMU8UnuouJWVXaA0EwqMwNxpmrj6XPypq8XlXItnYmPiUwsfAzzKT4+Njs8sUjdxRVZhOmwYoSy9nF0AIitTpfrT8lBZB3U0TSlp6JTnT/MQzyOBAUmgm77oRb0g/3zL+M9Uq/hUhGZbalvhfGXy0o+9bJRFGZKzfxSW0zxTa4eZIx+dOQvz1vuy3w8AQF06+ON12w+Cp2rGPHRZdtLvl24rHgHf0m76OF5WMjX1o8WOg3Wt08WZSelXbyseMsZDreyc53g6CnncPtd2WqHL/khNu1qgeEDDK0LR+JmeM0ex99e0XHo2OUtWWlXH4w+zm+g2Z6rl3cTvDksf67alSXMdGdYJ39qo+/Qs6tLBH061q7g8a69VgZMIuTQlOaugtErFF4ycPIksSCwaGfy+5kH94lMRccz8tfPVTAH+m/978tm8u1SNobntpJmW945dGRoYMtuqhSdtbD5unAZk8mIj0sklK+dY6twLMflxEXHXNTJlxDcbPs59zhwxt/+Cqcg/n8FuPlYyhKml3dRZHo7cmg11KzXl3PWSciUzyFw0dqaXm01JXETirdZSByBgv3dASHXK8xYdwUMk0I8JdPJp/H4oLc0uak0RZr+25PTgRR83zuE0nem1KdWtxO9OwIK18zTTTmpHX35HWuqrDqDyjH/9u9hxRaBmOlHnTN9M0tLYiKzXglfM0t2uBsor0XuvWgcGu7aeh+yb3USvkUCXEeiktOjcBHZZ02gICSABJIAEBjSBbl3GLykp7vx3veTmStmnrU1NB2589Ic7v+MPr7UAwBPNWPSO3lNXIVrUwsM2CRC2bovMDVvu+OCPnOMvMFbv3WizGmYiASTQMYFumhBTf/PxfJ8FoRs2qr8crGO3SkqKN4SuP5Fw/Dm/+bhj63gWCSABJIAEnotAJyfEukla8PdaniuIWAkJIAEk0LsIdFJaummtZb7PgoOHYme6unV+gmumqxv+Dljv+kyhN0gACSCBzhHoplFL55zBUkgACSABJNCrCfSuUUuvRoXOIQEkgASQQJcS6KYJsS71GY0hASSABJBAryaA0tKrw4POIQEkgAT6IgGUlr4YNfQZCSABJNCrCaC09OrwoHNIAAkggb5IAKWlL0YNfUYCSAAJ9GoC/VRaqPyYnSsXuolHCU0shBYObgtWf5NU3P5PirxQiOii+O0LHMyNTPgms8Pzm0zRRZLwlQuni0cITSysxK5vf7IrRd50toPU0yvSsrjNy+Y5cr0bMWVe0La4/Oado2WxXAErrvue734RmdniW++p3MgvgtwcrE0szC1GOc99iXzY75PuxnAALTv0yWxbIxO+kcXbkU29ZuRp+z5Z6KYOx4gpvivD4ltAayck/S8c7XQUs5FAFxLoj8+1KOJW+7wfdaP5xRaAdNuacHSDY9u/bfWcSBXpEV+s2xyjaYtw3pJ1Zp09a4vJ/+Htues4LSH4JNAUzQDwhL670g4ENvse45YNP70inb3Ta+HOTEr3m+B5pHNo/IlQF65zdPZ2rgAAECQBFM2SIMTBR07s8hZw7VEpn/ksiZAqmzUu8Pr2REyIuMu/Va4bw0GXJIWt/3RXYpE69oTX9zePBrO/Hsnk/7Bk7rpETtoJgmBoLhy60JqhaDrof+Fo6humkMDzEBiwz7XQaTtDWV0hXdZEZt+SV98vlZ2JWCTmA5W+Y+PPRc/Dsr06dNwXAZ/F3CQcFwe7q6/ZjSWp2C3bU+TAd1oTI7sjv3//dnb42zbAyOO375Q0v6A31tC8P73ilR3/G55JMYQ4MCqjuPZ+cfbuQHuCobLDPw67whkp3LttdybFI903nr4lv39ffidhi4eAR8uiQ3/I5gooU7evZXWFdF574PL96oo7Z3b6WfNAIfls3b4u5cO21o3hAHnUmnfDEotMpwcHTG92B6GIDt2eKAfCPmBX9h15Nctkp5816EDT4G/51u/C0bKDeIwEXhKB/jchVpQtvQcAAr8Nm/ydBHyCIG2cl//wz3WLfH29BYxCw5Gd5QjymTTCwtxkhNjRJ2SHpEQzyskOFbNzKQGRxRcilnmy8ycjHN2Whbczn/a636ajuRl7gx00v7yuMS+9cJECIL03bJpnw17kzJ1WhH7ADpgqr0rvdBTKp1Wk06IjpTSAOOSfEYsczYEwdwqK+H65GIDOiYpMogHoK5lZSgDLxevWeQh47FDJ/dOtASIApkiax962U0n7YgoBCJc1e7/2FZNACJ1Xf7/dX8jKQNTPUt3BUEeedvLci4YDEoNG8I1MrFfGl6SGBTmzc4C2jj5rItIaI9nMD75dQHj6pcTvA2x1pYVKS06l2I/Elt3BTiQPgBC6r/52nRfBQUttObzVsdjvwqHTN0wigZdJoMunP16ms52yPUzAfUV6Vdap9DJvL0t1HcJ5XdQBbXWamx6RyIFHCmxtBlUWpUVvTpNk7pYcD7LVFKKLI5ctyblpaieyfCCTZcZsWZAtO5K836/Z4ITw3p3iRxAATLHWtjrhHnGnOgxAly6tnoQZJjBrUbbZ4VMqMgXp51l5sJ7j56y9eBIuC+bY7JIVKbIyZYy3o/+R+z408Iim1pkHVexQiSDN2Mkh9eWScPD2FWubJr38ZpGHDlP/yUwvA0eRNv/FE10TDqCvfhcYl1s2TPz6sJob+WmRn2VlFcdKvnVnO6R9CYP+lb1Ci0WbDcBNCbIAdPIINnAACmlmCXg0kdApAQD9LhzNu4dHSOClEeh/oxYy4NO1ziTQN/YunCSevWTltt2H0240reYCQPHPn26UyEHkF37hzq3L0tyCrN3+NqBI2rj1cFO5mwWDPk2/Kc3OuHwnI9xbwIPi2NCw9BY3uJrLUxvRYW+NdaSFKYoKj5QxQHq9NbeZOrWq2nFFpqiEHfQQo8XWujVFYjv2OnmnSPOrw4SOrgAt2/dNvAJA5BfgRgDIS0rYXhK2droKQtjaiziNLCnRNfzi6S4KhzKnxPrrjDxpxgVZrmQDF9/Ijft0Nk1wnqrVopXTpONEO1ZF4jaHpat3UtDFsZ+FJXLRVMjlHQzU+ls4WrHBDCTwcgj0P2kBYvrWE78fWe/vIoCi7PjIsNAgH2eLEc7vhknUl5WihKMXaSDc1+xcMYa7cSXsg7jZKiolrmkhRLR43Son9Wnxsq1Bo9kJpTRJznNFQS4JfXddvBws/bbvCO5YWZrbb1WRrlGLG9HsBhxM+ZynUKO5PdexUnxohf/2VIqwCQrb6sXetT/hRjBg3EIWCZK7pX+ia0H2zdxRtiOe9c/nm2ZX/K4JB+G0IjRYzPWSdN7wDz92+k6WcqrlaFGn47pJx1VbV4gJoDLD5o0e5eg4xdbCYflZkSe366EDXdE1waZ7OBwt3cFjJNCLCehO2fRiN5/RNULstynSbxMtl144m5WemhAXl3YjbtuSAsXBtHDPAlkhe31OWyc2WdfC7j1FGaiHA4StU9NeMp4dOyq4QZeU3aO50UiLah0dMvL49b7L9ufQ5h6bov8dpDtS6KgasGv+rSsSxmoNoVkFUCdZK9whAKsXukZpWfQK/7WHixmhV9ix8Hnqn38fZMotC9W0NEE9YasOamaBfqBQqPVY1+xT0sIWQzt2d9rzh0PTGGEnfl3bLjF6rD0BcrqkuIQB6858hM29wxOPj975TXTiRVnlA3LMW+sjtgb+uco5EcBMrala4+0kekM42nENs5FALyTQmf+XvdDtzrlECB09Fzl6Llqx8dMf3nZfl5IftS9uvacQ6tnq4nkhXq83uxIDT+ignY1n6JqmRmh4hnvbpmrAFMWEvLX6UD6rKwePrG9aHtEp02ayvYo8G9EIYEWusADARVv1pox7aGeEjagpnrRs//v+6+OKwcY37NiPy+0buyoUWZIAcrqwWA4aHWXFqZC9TAPPerSO+IlDs6tDtY28cOKFwtG8dYbTweZ5TzkSeKyI8FgRoS1FS9awz7UQ1tY60LRnmyd6Rzia+4RHSKBXE2i6FPVqNzvvXGGEz4zP0hibFQel4V6Nl1OejXj0UEih6Ao5BS6i1wmoANPpn375aRuPmKg36NJ5OVIleKn3fdFXs9ldWSCyHNZosRMO0flRK95ad7SI1ZWY48+gKx1U5Nm5zRCG3ZDLEuLSNrq4q72hM48nsXNQghmzGp9KoaXfLFi4JVXRUldYtx3dppGRcVTuodgba9ePUXeEkiQkKRiA0S5TNRsfOtHBzhR54XBoGqGlWbng66zxNvtyAasKok6oAldDut3Z58di49FrTyRu0CCqOBbDPuZCTJ3jrb2daLtD/SkcbfcQc5FA1xPod2stIg/n1wHooqgNK3ZJ8hUURSny0/Z/svEA+8SGYKyTiGfv6+tEAJ29N/QHzaOOVHb43BHmFqO8dmRrRyeKQ9u2xLFjAUYu2b45qgSAZ+Pu5dTZCChzfgiau5rVFZf1UUfWOLBzVtzraQaeUpFwDwxmZ+oK965bE5ldRtOKnKi1K/fLAAinoEAPTmuo7O1ePqyuCL22H9kdaNPYNqjHXqT3qgBbdrNy2KpPYnLltFKevXvlxkPsddb9bx84du3NRleFg8mP3riZ23DMrcAnUOw0m+cbzTYztI9W7OkhoChFdsT/bIyTlskVuXHb/vaPGHZrw+I17K7r9l/9LBztdxTPIIGuJdAPn8an0rlHzZs2ezUSE/n9mHiEfcKDzgl722tbOgU8QmBrRyoLZGW09lH57FDx7N1FMMbDvTI17RFJAkVxDzla+0clRy5qexGeyfxiktuuwqan8bM3Os5uvprd6AThtffOr4Ek5O5wddssHbMhI32r7tX86RWBloZ7+Wxv92l8OnHl6ACdLzhpbBgAyMDjd/Z6s4+2tPk0/rxvTxzs+qfxXzAc7HMtAYcpwsl9YnFaNk3ygaLYESQxJqTV5uOmrkpCLBZGU01P4wOVFurlvzun2TIQ32lFlCSc29swcMLRxAhTSOC5CAzYp/GBdPs6+fcjm4K9HW1Jgt08SgrGeAR8+v2ZNE5X2MuS0/qjaQc2LnIfTVYV5pTUDHP0Cv4yptlXsBDCt8Jjvw1yGAoMQdq6BGw8Hr+3HV1pKzxP6AdtZevkUXJ2mDDSvsVE/9MrAuG4TpIcuSFguj37QChfKJ6+aH1kWuO3vADUPGl2AdVpU5skPb9OSPx+ja+LtTkBBCEY4xG05XhyVNfrCqtnXREO4Nktjzyyyc/OmAFCYO8e+HVsXIuHWrSdazNBuu+UJO9d6+tsQ/IJwtzG2Xft7sRGXWHFdqCEo006mIkEupxAPxy1vCAj9aiF8Pz2WnxI22OUF2yAq66IXDB+TerUndKE1W2s93RFC/3FhnrUwl90oDTKt2sn63QIYTh0YGASCXREYOCOWjqi0mvOFeRepQkntzmoK70iJBiOXhEGdKIfEeh3y/h9Izb52ZcpwsFP56tW+obf/dRLDEc/DSx2q+cIvLQphp7rUl9o2X59evX6vuDowPARwzEw4oy97EYCuNbSjbCxKSSABJBAHyeAay19PIDoPhJAAkigzxLAtZY+Gzp0HAkgASTQWwmgtPTWyKBfSAAJIIE+SwClpc+GDh1HAkgACfRWAigtvTUy6BcSQAJIoM8SQGnps6FDx5EAEkACvZUASktvjQz6hQSQABLoswRQWvps6NBxJIAEkEBvJYDS0lsjg34hASSABPosAZSWPhs6dBwJIAEk0FsJoLT01sigX0gACSCBPksApaXPhg4dRwJIAAn0VgIoLb01MugXEkACSKDPEkBp6bOhQ8eRABJAAr2VAEpLb40M+oUEkAAS6LMEUFr6bOjQcSSABJBAbyWA0tJbI4N+IQEkgAT6LAGUlj4bOnQcCSABJNBbCaC09NbIoF9IAAkggT5LAKWlz4YOHUcCSAAJ9FYCKC29NTLoFxJAAkigzxJAaemzoUPHW9N+/wAAIABJREFUkQASQAK9lQBKS2+NDPqFBJAAEuizBFBa+mzo0HEkgASQQG8l0APSkpsrXbLYf4SVxQgriyWL/XNzpb0VDvqFBJAAEkACz0Ogu6XlRMLxmdOnnEg4TnEv7aHWd3WOCd9IXUybjwkkgASQABLoKwS6VVooivooZDkALHkv8E7p/Tul95e8FwgAH4UspygKAE4kHNeOY9SDmxMJx/sKSvQTCSABJIAE1AS6VVrOZaRRFDVihGjf9z+R3Gvf9z+NGCGiKOpcRhoAhKxaBgAbPt9Urazd8PkmtepgqJAAEkACSKBvEehWabl2LRcA3lsapMtIfXjtWm5JSXFVVZVaWrT/UhRVUlKsW75zaUZ2bEfEiVtNhWtL0/4d9t1vVylVUx6mkAASQAJI4GUQ6FZpGT/eAQAO/hKt25NfDkQBwPjxDiKRtampKQDs+Gqb9l9TU1ORyFq3/POkVQ+kCbFXYPI7PhPIbu3x8ziLdZAAEkACfZ1At15oZ7q6m5qalpQUqye+AGDVyg/v3CkxNTWd6eoOAHv3/agWFRO+kVpg1DkvRpkuPvNryn3reX4elkYvZglrIwEkgASQQCcI6DU0NLRX7OGjuvZOPXe+eqG+RfWDh2Ln+yxQZ55IOL7jq23XruWOH++w4fNN2vwWVZ52yMiOhSXyFq6db1ORfejgBZi6ePFUAU9Tq1YuTU+9nF9aWcMzHTbScabHVBEfAJj8uIi466bTl6+YJdTaZ0qS9x/KrJu49GMvGwCmIj8jPft6abmyxtBcZD/ZbdYEoRFX8Sx/yco5lmqlLs/4179LJ61a7MhZlcVHHL1Oaw2SzktDZtuwh49Ls86mSovkVY+AP2ykw/Q5M2zZCvhCAkgACfRaAkNeMeyMb41X286U7Yoy830WnLtwacdX29Tr9jNd3Td8vsnBwVFre77PgueVE62NxoSKofKTYtOVdn7BTboCDy7HHTrPjPvrwjdEg+oVBamS3w7R7wa7W2pQVEovylz8xITaiFJ2JYdSwSvcEVOSevTkbaHn/KDRw3hPii7EH4s/99oKT6vG9tp8p+knjNnkRQGTzQHqC3/fn60p9UCacCiLmTx3oZ9oSJ0891R8QhJ/mT+nRm3awUwkgASQQJ8h0N3SAgAODo6HDv/aHqF53rPPZaRrz7q6uod+vtGVmy7TZnYyQd/4de8NgEEjBUM1QsFWLPkj+675jGVzxpLsEd/Fx/P+3sTMgqnvjGNZmI4Um9y+fP2BePJQ9nT51cslQltRqZxrkieaE/SRKzGYs8a3n2h/Tlp0lwKrDscatPIxkKOHka/yARh+k94PdXxnjVhFENwcnfVkJ+sLp8rKAaWFI43/IAEk0LcJdKu0ZGSk7fxq+7VrUvVTLGpyJEmOH+/Ynn5kZKRleKedTEp+DnUhRr0R6D6s8PfYlJMZgsWuQq6vlEKuNLMWcbrCOUCIbKyYc/cqVeMEAKBvPtaJOJ35R9nEOZb6TPHlnEejZzsycrW0sOUf35VeL624T1U+rKi8JwczO0bdjQeZB8P/UCcBGAZGatKqh4+UPD6/TfVhKgsvFd+rqKyiqAq5opYRa2w1msF3JIAEkEDfJNB9y/g7vtr2pvecDO7RFl1WFEVlZKS96T1HvW6fmHSmWlmr/ruWd/PN+b7a3WK6tTqVNibNza2mvvmGWHku/sytpuWODivzxU5jVdcvy2iovpZdQIyZNEo75FHmxUVGnZFRPFJk5+zm5+uiMxU22M4reHnw37g/n8lN+9BoiqohTZuUrLFtpvT8L3t/yy5l+EKxg4uX3xzxoMZT+I4EkAAS6OMEuklaMjLSdny1zdTUdO++H++U3teKhzqxd9+PpqamO77alsE9OKlFKhJZqx+cvM49EKPNf7YE395rvgvv+olE6QMAIAVCfmVxCfvsv/pFlxSV8iyGmWlJ8GwcHcnCK1fzrvxRNmzyJO3iP9AlBQUw7o0AL9dJ4+2tLc2B1lErY9LczLzxxTdutM7cK5UbCoXc7FpjHvdefiuvXDjDz8/deYLY1kY4uI7u+j0TzRrEAySABJBAtxHQXlBfbovancTvLQ0iyZb38O8tDdr59f9tc3Ti4OA409VtHPdAzHO7yBvu4espLP392HkFA6LJ04dXpCck55U9oCh54YW4lNv8iS522qEJAJiPmyIqP5v4h1I8cbzOTBZBDiWVd69Lyx4oqYriqwm/X2sSqDZ9Y5Sll7MLQGRlqnxAUQ8o6qGyDupomlLSMIQkeRWFubfklJK6l38+KbMEZ8PahIiZSAAJ9EEC3bTWco37euMOtn6pJ77aHJ0kJp15cbDmE33mlkbGxydbBno7+i2G9NSsoz+qNx9PfMdnauP2ME1DfLuJdqmFZeMm2jbjYznTz6s2OSt2n0TFF4ycPGmCMLGoA9fovKTolCIG4MT+G7rFft2rmBUc7DpvgVJy9kT0BZpnau0wc7K49KxuIUwjASSABPougW56rmWe92wA6FgkOlOmT4GmpbERWa8F6z4lAwDKK9F7r1oHBrsKu2nE2KeYobNIAAn0bgK967mWjkVFTbIzZXo3c/QOCSABJIAEWALdNGoZmLCViqIqw+GWrzabVYNqefFDYyvLoc1zByYh7DUSQAJ9jEAnRy0oLX0sruguEkACSKAHCXRSWnC+vwdjhE0jASSABPonAZSW/hlX7BUSQAJIoAcJoLT0IHxsGgkgASTQPwmgtPTPuGKvkAASQAI9SAClpQfhY9NIAAkggf5JAKWlf8YVe4UEkAAS6EECKC09CB+bRgJIAAn0TwIoLf0zrtgrJIAEkEAPEkBp6UH42DQSQAJIoH8SGBjSwuSHeZqY8I1M+CY++zr6suL+GeTn7hVdJAlfuXC6eITQxMJK7Pr2J7tSmn5v87mtdnHFK5unkEYOwZGyCqo4fuUU0mjUmtQubgLNIQEk8IwEBsQXvRTvm+u2LpX7cRXCPVyasMrmGSkNyOJM/g9vz13HaQnBJ4GmaAaAJ/TdlXYgsFcBlEs2BvzP7kwF94M3pENw+KHvA0QDMmTYaSTw8gngF700Mi6L3BiWSuGXQTby6OQ7Fbtle4oc+E5rYmR35Pfv384Of9sGGHn89p0SZSdtdE8xodf29Gu3pRkp6RmX79y8gLrSPdixFSTQEYF+PyFGxW/ZHK8A68Xfrp+u+0uSzaEkBo1gp8s0fxZWI6bMCwqLL2r8gWJaFrt5mZfjKHZeiD21LT6fO6WeZzOZ/U2ONPoTn0kWFkILB7d3t8Wqz2qaoLIjvwhwdrA2MTG3GDV97upvUtX315rT3KSTj/MIC3OTEbaOPsGbY240Ngsg3e6s9UqbsFgex9ZV+zz2k7Q2fp6SjgliJwBHrEkCJkc9GeiwLlVjV5m0zpGdG5wdnt+cQrMj6YWLFADpvWHTPBsWnLnTitAPHAmAyqvSO81Kcge0ZLmF1sPGRPMm2J4G+Uzieip29AnZISlhPaLjgiwayTdW5AJBitelc7bLUnetXeAqtrAwNxk1ae6y7XGyRm3LDhWb8I0sguPA3N7R2cVRDPFBI1gjVkHxbWBp7TbmIAEk8FII9HNpoVI2b4yVg8Bv48ZZLX82uTVPgrQW24vFNqZAydIPbwt6Y6OEvfbJ9i2Ys3xHzIWiQaOnTR09qCT9cFjQW6vjtb9eTN9P/Dhw7aESY2vRK3Txlbiw5XOX7tdctRWJn8yZt3JXYk4xQ1oLoCo3NWrj3JlBkcXqCx+d/8MS94VbItNuyMGUhEf5abE7ls1bsCtXowI1yirWTT4psBQKLIWkzs8pt3a/7Rye05otIWIeFB/YvF/GFpHt2xFVCMSYkK9W27ddhct1j7hTXVF7Z79fkyDTNDsnBsMEZq3r0fIq1mdCYGNty/4JWriq6enhtELaVGRD1hSlRW9e6PluVCGA8SAh1zuBgOTaIkgB21mBwNSUACg5vMxr7hf7k6RVhOj1YTUlqTE7353z9g6phlAzT+iUHdvje99qUDMf8QAJDAgC/Vpa6MxdGyOLGdJ9/c4Ay6YrZLuBfT0kOkt66bLs1u2sTdMJYIrS0nMA5NI8GO3s4bszPTv9dEKKNHaVDTBFkqSLWjvFubTP0Zu5F7Iv5Ul/XMzOGkl27mClR5katn6vjAbrt7+/VHAnN+/+tZgQMQGK+M82HmKvgMU/f7pRwk46rYiR3Sm8c6cgfZMbCRWpYTuPqYXrSc0TALD+IP6W7M4t2Z3oD55nkYNw27DJXwjKzO92xinKDm/bnUnzbAK2bHDuGAkPgADQTiQyRVHhkTIGSK+35gq0Xdcm7lVVsMriGy7NlcpypRxA7UltT0V+4Rfu3LoszS3I2u1vA4qkjVsP0/O+z+V6dythrZht1GN7FtvZW7LsTc5UzJZ/xJQA6bn1zPU7l7Jldy4fWTGGoC7s2Phzq+0YTM6uLY2ardM0JpEAEuh+Av1ZWqS7/7ErlyYmrt2+7NmuyHRlMaWkgWczdbodgDBg1+kzktMHVjuxl2KqSHbnCQAx2tZaGy121siNGxQRNgGhq9hLtuKU5AJNpx8+XsZeK1dvCxZzd/GCeVs3+ZAAlCQuSQFFCUcv0gAC/63b1ZNOpMv68O83bdy6xk1Qw1mvUbI356b89kWgJDJw7IhR4hEOjo6z314Zppmp07qmTpC+Gzd4kaCI27IsZHN8BbBuzHv6KE7HilwS+u66eDlY+m3fEdyGsjBV8koaeMMEZm26qu4p4b5m54oxXAHCPoibXqNS4jpauak4FZ8kB5798i0bnM05d0R+60M8CKCz4k8pdPxjdTrys11XaOuJTqRWDpsXwCMkgAS6jUD//V9YuHfjN5k0z37N9rWOnezljR2u5A4NenOnoL1HwnWuv8W73ZxDM9krPd/Ga+O///mpPYB61osYPdau6YIqcnIyg+wyuqSMktfkVzEAIicnS21ASYdJdkRsJl1YUEILZYU0AOHoPK2p+hi/9WO0hWmqhi1gzDfVZrVK0FSZegpIXlyYn50SlxWW9uvyVlIqCtn06aH0LZlpKQCkx/pti9qQh1amNRmMPH6977L9ObS5x6bofwe1ufmKuaeoBOAJhG3aZQq4nkLaOrHJuhbN3FOUAYhbZDYe3smX0QBMfpibUVhjnuZdUVyiu5pSEbc9PJUSBe9eQ/zv8pwWZfEQCSCBbibQyYtuN3v14s3JozZtTqNAsHjLx+zUFrtarDGqez1q0Y7AY8XyWey1kZZnxUVGrXmL5h370V9zmSZHe/sutqYrC7JSciT7Nn/nPOFLT3V9uqaZTfWCRAvTOoe6heu5fN0cnYIAFM2tV5Omg5pl6x6IQhKk37rzAKj8mE2LVkfmS77Zlxb4tW4RTZppJADQ3OE2yjZlMUUxIW+tPpTP6srBI+vbm0QrKy6mAXjWoiYRbbLBpv7/9u4Hqokr3wP4FUad1tSMhTXxoAJVDFQF6h9AlFBYRaGallZZtYUt5xUre7Sr5+GrtHrUoy326Tm6pW9ptbu8ghULrlS0oNhFCVZobJXgH0TLAisckwqPwcY60BHemYTEhCBJNCroNyfnZHLvnTt3PjPMj3vnJtHvqSwmOeq5O2FUSKek/n10nwwylDRo0ZLgHjd4mJCRFPm5eyOscvvO3CYmKn1tlNtOyw3jHQQg8AgEHtPQoi0qKBbuVmhz/uCTY8FaulY2fGPE9h+PLrP+79stJD4l1dDF4eQk6NWM3HU74xf8JVx/MWSiUj+PEqqq2S4P21ixe2tmUuQ8Q9U1Zyq0xK/7//WLleoW4a6DpwcjJX40VcE1VVY2kaDuzbFV6ktCT2ScryftK3uOJs2c+kw5lxhtuOJyF/elH6gmTEjCimgJr2lo5AhhGEkfV1/j3jF+ccmL03M2qLX1DW3CXRKLR23Guk8qOco7yP+W6szxbZsy4/b2Nq5lsQ4hXHXWsldSDtQJcSX34F3jCiFc1dnLHKGn+BnG/XpUI4QcYU+JOHTVB6uselQ9S5u99/TypEkNNyI46aMPgszSjYvdoeVCxuaianrKpvXx3rRhUpmxAF4hAIFHIvA432u5H9A2rUYITW0abUt+SmjA9KnylELDnXWO44R//zkdJwx26R9c8db3s/UTjpsrtq3boeYJkcyLCqVp+SsKD0K445+szzTMl9UWbth8SJjTK4+NlhDvBa8K92+0eRvWGSY6N1ekp7yzeWtauqptKCHcmfziy4TQLwRN7Bkpets1VnWgSBg+EkulPcfPNLnr04Q+XOymL7M3RbkTtnDr+3dmuBF9r86qSl3lroS5K4S4ErIm66uV/kTYc+FhVZJocvOOsISWxUTfZWTLT6EIpAmnyli7q3tqNavaPnes+0ifqDSVkdG6XiKJVsgZwldnb0lTCdMECNFV71o6dqR0bFhKkakh3MVKNeedsNHukc9etoQkCEDAmQKPaWiRJO5v7rihM3+q10+hCaHDt9fcaO6ty0II+VfmW/KgsNCgsKmy6cn5LE8Y+bxwjwj5RK6mpmJXwoTpUXNnh06Ys7WSI0x43CumWzheoV6q1QFjR48cOV6+uYQlFBO1NlXBECKKXp+WKKNJ/YG3p48f6y8bOTlOmDAmUXz0wRKpMPXrrY+F+/+6yl1LZWO9xo71lW9WsoQJWZnyivaTuRNi0tQ8YSIXv2zdwTKdA03dt/F9pCNnb63gCBOUnBxlGYnYwg1bCjVEFLFm3WKJZ+IHK0Jovi5304ZS/WibdvfckcwQn9U9vxxFtfWPKYX6uzjNFdtihM+UmJ4Lsw1RVt8IvuL9IP8UIVBxNZ8qfGTCnAIfmf86JSd0ZnbO9Qn4czFPZMs/XiNnSFN+SuhIn6lB02VjZ288zvJ0cPzioL56ztKEzR9FeRC2ZMPsSWOnBwX4+wakFGg42i8uIcJ8LyWKTWsizRNMQFiAAAQegcBjGlruTZLT1FRVqqsq1bXXiCQwavlnh3YlSgijyDiyf0ti1IQR2qryqn8Tz9DFK3cXZwu38bsfYvmmvPTkYAkhNOM1JXZlRumepO5cieKzY4WfLYsJ9KLY+hYifj4iYcvRk1mJwixbYdgscGVu6Z61i8NlUqJjObFf0KurPy8sXuNPE+4WR0llitTP0/scueKF2/jaJo2WZyT+0cvSC/anBBrbpX/VVWwTpuTSAcs3JYwTUmQr/jvpeUJqMtftrOQI0bS0coT2ld2Z8GZY/RbXalHPXd/cam9jDR0IrlnfEn17DEkcq9FqW4VcOnDNgdI96xaHT2Daaisb2kcFRCV+kGvHd8bIEveXHP0gMSJAzDVcrmOH+YUv2bTn6MGV/maBRBTxzgZHJibcdV+QAQEIOEfgifgOMedQ9VJL9bbI4M0qLmCdumztnUjTS8H+m8QVJI19I2/UmhL1+in31Er+eMrEubua6Ljsnz83+3ilUNepd/1jdtTTi/c0Zin66prc03axEgQg8CgE8B1ij0J9wG2Tv6S+wBLPeXP9B1zT0WAIQKD/CuCfyf57bB5Gy1rOqv9FZG/F9nnDo++GPCX29JOJhjLDrIrRjOcEv6HUKLOhK6sySIAABB5HAQyIPY5HFfsEAQhA4MEIYEDswbiiVghAAAIQsCWAGWK2hJAPAQhAAAIOCiC0OAiG4hCAAAQgYEsAocWWEPIhAAEIQMBBAYQWB8FQHAIQgAAEbAkgtNgSQj4EIAABCDgogNDiIBiKQwACEICALQGEFltCyIcABCAAAQcFEFocBENxCEAAAhCwJYDQYksI+RCAAAQg4KAAQouDYCgOAQhAAAK2BBBabAkhHwIQgAAEHBRAaHEQDMUhAAEIQMCWAEKLLSHkQwACEICAgwIILQ6CoTgEIAABCNgSQGixJYR8CEAAAhBwUAChxUEwFIcABCAAAVsCCC22hJAPAQhAAAIOCiC0OAiG4hCAAAQgYEsAocWWEPIhAAEIQMBBAYQWB8FQHAIQgAAEbAkgtNgSQj4EIAABCDgogNDiIBiKQwACEICALQGEFltCyIcABCAAAQcFEFocBENxCEAAAhCwJYDQYksI+RCAAAQg4KAAQouDYCgOAQhAAAK2BB52aDl86OBL0XPGjh45XDTEnudL0XPKykpt7QXyIQABCECgHwkM6urqultzfrn5292y7i398KGDS5csuod1vyk6FhYWfg8rYhUIQAACEHCiwDPDBttT20PttWzcsM66TWFh4anvrc/Zt//fjT/f0HWYP89duPzSfAUhJO3DzdYr2pHC13ydlvFtnWXJ1u+z07JUrZaJeAcBCEAAAk4ToJxWkx0VXb5cQwj5r3ff8/Z+rqys9FyV+ty5qrKyUtOQl79/wGT/gPnzFYaI4unplfre+m8OF5w/V2VH9SgCAQhAAAL9QuChhhbDHq9bv5EQ8vobCYQQlmVPlpUaAszJMmVVlbqqSv3lnix//4DDhccYhvH3DzAU6xdaaAQEIAABCNgh8AhCi3mrGIaZv+Dl+QteTiXrCSFlZaUny5R//Z+Pq6rUa9/9z08/+5t54QezzDX9cKz07E/aNp4eMXrcCxHyKVKaEL46f8cJ0dK353gYhgyvl/39i8apy5cEiAinPas88UPttWYdL3LznjQzIkz27CNmfDAyqBUCEIDAPQo81HstNttouO+S8ennhJC9X2YbppDZXOs+CvCakzm5pznPF5ckLX8rdpa0+bvsgrN93ob5tbo499tG8QzFm6tXLls01fV8wTenm++jBVgVAhCAwOMn0B//3Z6/4OWHBN1xRfWjbqIifqa34CCSRShuNmZUnm9+IYy5Wwue9lP8hzf/NK2HkwZM9T31VaO2g7gPudsKSIcABCDwxAn0x9BiOgg3dB2EkOGiB3bZbtFobrFt+emXXI3bvM3xrkxbJxFCS2vF3u0/GDN4now3LrMNZ680Xmdb2lhW08h2evE8IQ+sjcaN4hUCEIDAgBHo16HlYShSXvLXYyc+ZbYpF4o2DBM+7Rv1eoTHIH3W9dN537DCUvPpvV+e4MYGTvTyDpC5i/lzB/IxHmamh0UIQAAChPSjey1pH24eLhpyrx9huaeDOUIqpZpbblCi4SLDk2q/3tZBuuPtUMbdzd34EA3Vb4H91/kmUYji5TnBL0wa5yllOjnunraMlSAAAQg8xgL9K7Tcx6cj73qMftM1NzU1mj01bR2E+78mDcsT2idoGlNTnP9djYa90dpcW16Yu++bymb+rpUR0Qj3oW0/qfXlNbXlhcpL7XcvjBwIQAACT6ZAPxoQS31vfdqHm1PfE2YhO/Fx8+KRrItW9Wnz86nE5NmjpbOWxNHHS5U5qlaODJN6Tl4YN2s0RcjdogvlM+e1WUX/LMk+c5OIPHxDp03SHNMPlFltAQkQgAAEnliBh/odYoYb8oab832Lm0pWValnhU4Xi8VXm673vYoDuZ11xRn76icmLntR6sBaKAoBCEDgiRfoj98hZjgoDQ31dh6dhob6rWlbCCGT9Z/Jt3MtO4tRQ/pRj83ONqMYBCAAgQEh8FDvtcwKkxNCMv76CcvaNYg0eeKEw4cOEkKcPkpGCKEo04zjAXGk0EgIQAACA0bgoQ6Imb5Un2GYWWHhYWHyyZMDDPHGHKyhoX7yxAmGlFlh8tT31uMb9c19sAwBCEDgUQnYOSD2UEMLIeTwoYNpH24+Z/lNxmFh4bPC5P7+ATNnCd2aPyUnCb8YNl+Rs2//o+LDdiEAAQhAwFqgn4YWQ0MbGupPlilN36tv3XqxWHzuwhWGuev3rVivghQIQAACEHjQAv06tJjvfI/v1ReLxS/NV6S+t97T08u8GJYhAAEIQOCRCwyY0PLIpdAACEAAAhCwU8DO0PJQZ4jZ2XQUgwAEIACBAS2A0DKgDx8aDwEIQKA/CiC09MejgjZBAAIQGNACCC0D+vCh8RCAAAT6owBCS388KmgTBCAAgQEtgNAyoA8fGg8BCECgPwo8GV/RyFbm7kzblV9epWXFY2fMjVuVsiLai7Y4HmxV5pZV7+5SsfSSr37eHWvIqy9O27JzX+mZujZ6lH/E4nfWpSrGWa5mXsfFtNmRG1Q6Ikk6emVHhCGHPZO5bWvGIdUlDT9KFvpK0trUhCl3PgfKnsrYsvXTg6q6tmHewVFvpmxcHS4xr9G0zGsunG55dvrEUdbHi9OcKz915nzDdR15yt1DNk0+6wWpdRtvXPmu6MipOmpKfPLvPUzV6hf4xtIvsk+1jn911SKZqfobdd8pT16obWy7Tbt5Bs78fZiM6c5r+jY9S2X2FXCUVJ6YNPN3lnXiHQQg8GQLmK4ljy8De/z9mJfTqzjaIzB4ipfmYnnW9luy2OiV40y7rCnd+vbK7UX1lj/Swhb/WbE0o14UqFiSKG0pP5if9sapuj3KLEWvV3++btfaHSqdqU5hgVNtWKhIU/HeQbGJUeRS8aEdK06VawuL1/gL135O+e6CuB1q4h0kj2Y05crsdxepNXnFH4WLLCoR3nRerVJWuipmTOyZwzcpc3J/4MYFRSgiGdcbVy/+cFJZ4xMXYF4F33zuWME/z5MxUpGLZfv0tTX/cFzdalkvV1ecs79+5KzwhdGSIb/UfnekII9f+sc5HkMIITz7i46ZsnBJiPH3CFwGi8y3ZlkT3kEAAk+mwGMfWrjSravSqzivJVkF6YuFnoquurikLehOXCGErz6UWS6O/cuh0PL4lfuMP0jMFnyeWc/7LctSbpfThHBx64Jn7/x6d36dYrm39bmizVm1RckFRYZcLqkw5rK5OzNUnFSRUbpniXAh1uYlzEral741J2FvooRUp2/MUPOBKwuUH4TShGhyE4PeystIz1sdnmi8ahsrItr6+k6vKOuQpi0/qtLJFiTFyAz9lNFeftN54+8vG9dmay/rZAuSg92qc+t+MCYaX2+cVZ7mAl4MvHjiTtThr56vJZOiXpoxTogl7lPnhTX89Zj66hwPAY3V3SDiMVKGGWGsAq8QgABt3U43AAANNklEQVQEego87qGFO56XV02Y6JQt+rhCCBH5RSksFSivuMzvt4R604Xl5hkBb+76PFYSJFz3CSG05zgvmtSxOmPoMS+q3ff+liLu+dQPV7BvKStuGbL4SzUXWELHKhZ0hwrJgthwel+u8kipLjHu318XnOHoqOQ1oTThOZZl4nZfVuwghLYezCLNdfXcmBDhxy8tH03V51sk017tjiv6PBfKqpR7cOwi4kKI2SCWsRquVnlS6zM/RvKT+e9wUj4Lkn2MRQgR1jU9On9pu0GJnnnGlNDrQn3xjpwfumMV9bS7x4RpkbOnS4VAZfHQnc3JKPrJ1FekRr2YmBjmri+iqysrOVlZq9WRYe4ePjMi5ZPchxBy4/TeXZWefzSOv+l/0o2bnarw0XyXmdk0ZWXcC+hAWQjjDQQelYDVhehRNeQBbJcteFu+LLNeuMQVpQQMTxE2QYtDNx07kGz59WTeQaHWm2cCYhYHmJL56ty84xzlLQ/1M6UZF9jijRtytd7LMlKDqHeNicK2mGGE8Ne0TYTI9MlN9cKYmz6Fu1BZwxPP554qWC3fnFOh1RFGFr1y22drIq26LETX0NA8epK3xaHqbCz9Ikd1jeOpk1l/MfaTqNHh8YsChps1wbBoHhvMMvmrZf+slcoTvem2n8ySLRe55gsnyhvEgXFj9OkdLNtOuPP5WScaWzjKbeyk4PAw2bMWTdOXo4b5L0yQj6HIb1xbvarwSEHFmGXynrvG3dKRMS8mvDRpGCE3L36990r3pvmGY3vzf5LK58e//Dvql/ofvy3KO+KaqPDrJepaNhbvIACBfiJgfVHoJw1zQjNo+aa8dDI/KbMtaNPhjMUj9VU+5eZtPbBka2OagtWLNys5r8Sta6yCEKfc8H5OnST2q3WRNFGa1UQFRikCt22p2Lb6Xc+Nb8p4ddbGHVU8IRThCGlrEToR2n3vbPdPfGfHn8QN+ek78zcnxNHFypXPm1VCCPn1SoNW6vmS5XXVRRr82hLyj+yaMQuXBhnvoVO06GnLdft419n8fUklHZw4cTghbb2V66wu+PjrC7/ylNg3cmGY/kYLIZ2Mx/PjbzI+E0LC6M7W2opvC3JYxR9jZVa9hcFDaGa4kCqi24fRFGXdmyJEp+OoZ9wlz46gCKGeNp2KugsVldS0eMU0fSgaPun38643fFlZo/O7E+l7ay/SIACB/iNg+nvuP01yWks45YZFKzO1PCGnNsyfmWbqsji4AU3xasVbmdXiqL9kb4u+M7vLUAtXsW1tZg0T/cnG2J5ZhASs+mJ77eKUnB1vRO4gFBMQn5rEb0ivGiFhCNH/xCUrXpK913DffnEwJQ/bWJG1t2LllhDzFvJX6xtHjJf36It0ar7/R47qGs9f3//3C/qD6OIevDg+2O7QwqqPqbjA2CmG8SfzDRqXXXwiE5JCb7U2VVeU5mTrFsWHe1Dkae+ZMaZbTVLpqGe4v2V/X9UsC+1RD89W7f+4miKEb2/nxRPmvRrSo4AwI6D9JjdM/EzPU7DzepOGa2nK+fissSVdfHuHiP2FkGGEdGqUmWmnjDk8T4xTG/jao+nbjhHiQg19Rjp+akTktNGW0di4Dl4hAIEHL9Dz7/rBb/HhbYGWbyooCUyJ/HMxH7Km4ItFbsThLguvKVg9Vx9XPtqflRxgda3S5qQJc89kRLX9bRUhpOmEMORVsnNFyqWkrckBtF/CbrVibYW6gTDjAgMkx1dM5IiHr68bEXvoJz/LAk2TuWT+fjSp0Lb1mK3FN9Y10p4zel6YXaTBi96SKvcUaCe99tp0sXBHhHJgptav1cpTmnGRsV5W9z/MDg8letZdRNzdPcZQuvTi01dmevj1PF0o6WgJqWJbCenRQGqY7zz9gBjhO66pjx4uOPG7hMged4tY9gYv8rSOyELPblzEm1HjBt9pjAuhnyZER4iL+9QFi6a46XO6riqzjxjLUB6z4mN8aUJ43b9Pl5TklYiTY3ysDpixNF4hAIEHKnCXYfgHus2HVTnNSL2eT1z5hjfhKnIzK4mnt9Bd4DUqVV1v9+KtmmWKK5Ef7c9abYoB5uXYFiEScDVFWZmZwrO4TsitLcrac6KBZ3MTxo4dLUs54xUeGRLgSWo+31mgJbIFsUEUoUPnRUkI9+OR4iZDfWxx0QmW0BNkvub1k05NbQPx8u55l4IQihaNkE2d5Hb9vFpLiYaLRCIHLqNc7fmaNt2Fg9vStm4Wnl9WsB2XDmxP+/upZkJI85n8A99W35kxRijKheK7bgv325vKcr86Xt9hbGNns6aFiIf3MlvMMCAmGi5i3H2CJ0lbrlRrO41rGV45TVMrI5FYDaW5jJKMJM2tN+nhImG/hotELrrmtt+MswmoYc+6dz/cGNHQO3XSwxh9utRrSkSAB9d4rZd5C3dKYwkCEHiQAj3/DX2Q23okddPha3cuU/5hV/YfgpSBweNGsDXl6vaIT74/mGDjlgtbuk7or3CU1J+5tHvN24bW0wGJW5aHmK7ishTlz/rpAd37VvJnn1czSGL3RybZN5dICnfkJgfV570o5dRKZTUnS/xglX68i4ldsyaieG3+iqi5xdG+9L9O5BbX0bLk/3rDNNykr7KlrqHDK7zHhxxNkJKwuUE/7T2UzYfO8h/zDNFdqz1T2T4l3jgX2VSu5wLtE52Y1P2hTmFkqvF4zj/50NfnyMRC54NxEzWXHClwuR062YMhN7U1ZSWXqYmx44W9dhvNsPuKDlGRoX5uLr80fH9E9ev4GP8eXRZhc791cOwNnXB6dVy/cFlDMb5i839jOnT1FeW1T3kpnmpl9SHgJseTTk7H6hhGNDEk8Mf8Q4Wi2UETRtHtV9UlR87wIfGvW3XdLHeLv6Vj2d8IuX3z6mn1NXr0NOv+kOUKeAcBCDwwgcc+tBDiHr29sNh/+46sovLvVfXS52bExbwZPMymaGtVlb5zw2tUBzKFwS79g26LWGcWWozJvb8ykR8dPiDdvPV/jyq/rqJH+S/atH5jarjxOixbfvCQeMO23UdK95W3D/UOTvwoZe3qcMvrIVtX3zb6BY+7HiXK48X4+BFlp858m39S5zrMXeo5KcjDFPh6b5WQSovcabPuAsfQhGV+5274xD3lOWfpayJlRXlBZXN7Jy0e5eUf+8ZMw9cQ0N5Rf1j43YmTJV+d1HWK3Dx9YxZHCBMBej74m1X7M6r0qRTtNiYwZq7FvGD2TF7eKQ1PNAc+Nf+oTWPOLk3U8vip3tFLXy4rqfg2V8m2UyLJcyGxkTPczSNTz80J8bHhxO6ME8LAIC2Wjpu1KBKjYb0oIQkCD0lgUFdX19029cvN3+6WhfSHIqBTf5VRMyH58fu4BluRubvWN+n1GRaR9HrZ37+oD1gWP7WXWPVQvLERCEDAlgB+ZdKWUP/P5+prNe6enmbdi/7fZrQQAhCAACHoteAseAQC/A1N403R6FEii6G+jlbNtXaR8F1nj6BJ2CQEIGCPgJ29FoQWezBRBgIQgAAEBAE7Qwv+P8TpAgEIQAACThZAaHEyKKqDAAQgAAGEFpwDEIAABCDgZAGEFieDojoIQAACEEBowTkAAQhAAAJOFkBocTIoqoMABCAAAYQWnAMQgAAEIOBkAYQWJ4OiOghAAAIQQGjBOQABCEAAAk4WQGhxMiiqgwAEIAABhBacAxCAAAQg4GQBhBYng6I6CEAAAhBAaME5AAEIQAACThZAaHEyKKqDAAQgAAGEFpwDEIAABCDgZAGEFieDojoIQAACEEBowTkAAQhAAAJOFkBocTIoqoMABCAAAYQWnAMQgAAEIOBkAYQWJ4OiOghAAAIQQGjBOQABCEAAAk4WQGhxMiiqgwAEIAABhBacAxCAAAQg4GQBhBYng6I6CEAAAhBAaME5AAEIQAACThboK7QMGuTkjaE6CEAAAhAYuAIudgeFvkKLq/3VDFwqtBwCEIAABOwTcLE7KPQZWlztjlD2NQulIAABCEBg4Aq42h0U+g4tfeUOXB20HAIQgAAE7kGAcrU3KPRVztVlkP0x6h5aiVUgAAEIQGCgCFCug5wzIEYIGTrEdaDsNtoJAQhAAAIPTsChcNBXr4UQ4uoyiEZ0eXDHCjVDAAIQGAgC9BBX+7sshBAboYUQMniwy5DBtosNBBy0EQIQgAAEHBYYMthlsINRYFBXV5c92/mN7+Tab9tTEmUgAAEIQOCxEXhqqCtFOdy7sDe0EEI6O7u4jtu3b9sVih4bVuwIBCAAgSdTwNVVuCHi0DiYCcqB0GJYh7/deft21+3Orq7Ork5EGRMkFiAAAQgMfIFBg4iLyyDD9GD7pxpb77fDocW6CqRAAAIQgAAEzAUcHkEzXxnLEIAABCAAAWsBhBZrE6RAAAIQgMB9CSC03BcfVoYABCAAAWsBhBZrE6RAAAIQgMB9CSC03BcfVoYABCAAAWsBhBZrE6RAAAIQgMB9CSC03BcfVoYABCAAAWsBhBZrE6RAAAIQgMB9CSC03BcfVoYABCAAAWuB/wdekS4C3On1jgAAAABJRU5ErkJggg==;" parent="1" vertex="1">
          <mxGeometry x="106.27" y="700" width="393.73" height="239" as="geometry" />
        </mxCell>
        <mxCell id="gVkcCGGmK2Fdc83e79nt-21" value="&lt;font style=&quot;font-size: 14px&quot;&gt;Добавить выбор месторасположения яхты на конец периода бронирования. Пользователь может выбрать только доступные даты, предоставленные на основе возможных дат бронирования и уже имеющихся бронирований.&lt;/font&gt;" style="text;html=1;strokeColor=none;fillColor=none;align=center;verticalAlign=middle;whiteSpace=wrap;rounded=0;fontSize=18;fontColor=#3333FF;" parent="1" vertex="1">
          <mxGeometry x="106.27" y="1000" width="532.5" height="20" as="geometry" />
        </mxCell>
        <mxCell id="gVkcCGGmK2Fdc83e79nt-22" value="&lt;font color=&quot;#000000&quot;&gt;Available_range_data&lt;/font&gt;" style="shape=table;html=1;whiteSpace=wrap;startSize=30;container=1;collapsible=0;childLayout=tableLayout;fontStyle=1;align=center;fontSize=18;fontColor=#3333FF;rowLines=1;fixedRows=0;resizeLastRow=0;" parent="1" vertex="1">
          <mxGeometry x="800" y="620" width="600" height="170" as="geometry" />
        </mxCell>
        <mxCell id="gVkcCGGmK2Fdc83e79nt-23" value="" style="shape=partialRectangle;html=1;whiteSpace=wrap;collapsible=0;dropTarget=0;pointerEvents=0;fillColor=none;top=0;left=0;bottom=0;right=0;points=[[0,0.5],[1,0.5]];portConstraint=eastwest;" parent="gVkcCGGmK2Fdc83e79nt-22" vertex="1">
          <mxGeometry y="30" width="600" height="70" as="geometry" />
        </mxCell>
        <mxCell id="gVkcCGGmK2Fdc83e79nt-24" value="id_range" style="shape=partialRectangle;html=1;whiteSpace=wrap;connectable=0;fillColor=none;top=0;left=0;bottom=0;right=0;overflow=hidden;" parent="gVkcCGGmK2Fdc83e79nt-23" vertex="1">
          <mxGeometry width="150" height="70" as="geometry" />
        </mxCell>
        <mxCell id="gVkcCGGmK2Fdc83e79nt-25" value="id_product" style="shape=partialRectangle;html=1;whiteSpace=wrap;connectable=0;fillColor=none;top=0;left=0;bottom=0;right=0;overflow=hidden;" parent="gVkcCGGmK2Fdc83e79nt-23" vertex="1">
          <mxGeometry x="150" width="150" height="70" as="geometry" />
        </mxCell>
        <mxCell id="gVkcCGGmK2Fdc83e79nt-26" value="data_start" style="shape=partialRectangle;html=1;whiteSpace=wrap;connectable=0;fillColor=none;top=0;left=0;bottom=0;right=0;overflow=hidden;" parent="gVkcCGGmK2Fdc83e79nt-23" vertex="1">
          <mxGeometry x="300" width="150" height="70" as="geometry" />
        </mxCell>
        <mxCell id="gVkcCGGmK2Fdc83e79nt-35" value="data_end" style="shape=partialRectangle;html=1;whiteSpace=wrap;connectable=0;fillColor=none;top=0;left=0;bottom=0;right=0;overflow=hidden;" parent="gVkcCGGmK2Fdc83e79nt-23" vertex="1">
          <mxGeometry x="450" width="150" height="70" as="geometry" />
        </mxCell>
        <mxCell id="gVkcCGGmK2Fdc83e79nt-27" value="" style="shape=partialRectangle;html=1;whiteSpace=wrap;collapsible=0;dropTarget=0;pointerEvents=0;fillColor=none;top=0;left=0;bottom=0;right=0;points=[[0,0.5],[1,0.5]];portConstraint=eastwest;" parent="gVkcCGGmK2Fdc83e79nt-22" vertex="1">
          <mxGeometry y="100" width="600" height="70" as="geometry" />
        </mxCell>
        <mxCell id="gVkcCGGmK2Fdc83e79nt-28" value="1" style="shape=partialRectangle;html=1;whiteSpace=wrap;connectable=0;fillColor=none;top=0;left=0;bottom=0;right=0;overflow=hidden;" parent="gVkcCGGmK2Fdc83e79nt-27" vertex="1">
          <mxGeometry width="150" height="70" as="geometry" />
        </mxCell>
        <mxCell id="gVkcCGGmK2Fdc83e79nt-29" value="1" style="shape=partialRectangle;html=1;whiteSpace=wrap;connectable=0;fillColor=none;top=0;left=0;bottom=0;right=0;overflow=hidden;" parent="gVkcCGGmK2Fdc83e79nt-27" vertex="1">
          <mxGeometry x="150" width="150" height="70" as="geometry" />
        </mxCell>
        <mxCell id="gVkcCGGmK2Fdc83e79nt-30" value="01.01.2020" style="shape=partialRectangle;html=1;whiteSpace=wrap;connectable=0;fillColor=none;top=0;left=0;bottom=0;right=0;overflow=hidden;" parent="gVkcCGGmK2Fdc83e79nt-27" vertex="1">
          <mxGeometry x="300" width="150" height="70" as="geometry" />
        </mxCell>
        <mxCell id="gVkcCGGmK2Fdc83e79nt-36" value="30.12.2020" style="shape=partialRectangle;html=1;whiteSpace=wrap;connectable=0;fillColor=none;top=0;left=0;bottom=0;right=0;overflow=hidden;" parent="gVkcCGGmK2Fdc83e79nt-27" vertex="1">
          <mxGeometry x="450" width="150" height="70" as="geometry" />
        </mxCell>
        <mxCell id="gVkcCGGmK2Fdc83e79nt-38" value="&lt;font color=&quot;#000000&quot;&gt;product_reservations&lt;/font&gt;" style="shape=table;html=1;whiteSpace=wrap;startSize=20;container=1;collapsible=0;childLayout=tableLayout;fontStyle=1;align=center;fontSize=18;fontColor=#3333FF;rowLines=1;fixedRows=0;resizeLastRow=0;" parent="1" vertex="1">
          <mxGeometry x="800" y="820" width="600" height="245" as="geometry" />
        </mxCell>
        <mxCell id="gVkcCGGmK2Fdc83e79nt-39" value="" style="shape=partialRectangle;html=1;whiteSpace=wrap;collapsible=0;dropTarget=0;pointerEvents=0;fillColor=none;top=0;left=0;bottom=0;right=0;points=[[0,0.5],[1,0.5]];portConstraint=eastwest;" parent="gVkcCGGmK2Fdc83e79nt-38" vertex="1">
          <mxGeometry y="20" width="600" height="75" as="geometry" />
        </mxCell>
        <mxCell id="gVkcCGGmK2Fdc83e79nt-40" value="id_reservation" style="shape=partialRectangle;html=1;whiteSpace=wrap;connectable=0;fillColor=none;top=0;left=0;bottom=0;right=0;overflow=hidden;" parent="gVkcCGGmK2Fdc83e79nt-39" vertex="1">
          <mxGeometry width="100" height="75" as="geometry" />
        </mxCell>
        <mxCell id="gVkcCGGmK2Fdc83e79nt-41" value="id_range" style="shape=partialRectangle;html=1;whiteSpace=wrap;connectable=0;fillColor=none;top=0;left=0;bottom=0;right=0;overflow=hidden;" parent="gVkcCGGmK2Fdc83e79nt-39" vertex="1">
          <mxGeometry x="100" width="100" height="75" as="geometry" />
        </mxCell>
        <mxCell id="gVkcCGGmK2Fdc83e79nt-42" value="data_start" style="shape=partialRectangle;html=1;whiteSpace=wrap;connectable=0;fillColor=none;top=0;left=0;bottom=0;right=0;overflow=hidden;" parent="gVkcCGGmK2Fdc83e79nt-39" vertex="1">
          <mxGeometry x="200" width="100" height="75" as="geometry" />
        </mxCell>
        <mxCell id="gVkcCGGmK2Fdc83e79nt-43" value="data_end" style="shape=partialRectangle;html=1;whiteSpace=wrap;connectable=0;fillColor=none;top=0;left=0;bottom=0;right=0;overflow=hidden;" parent="gVkcCGGmK2Fdc83e79nt-39" vertex="1">
          <mxGeometry x="300" width="100" height="75" as="geometry" />
        </mxCell>
        <mxCell id="gVkcCGGmK2Fdc83e79nt-49" value="location_start" style="shape=partialRectangle;html=1;whiteSpace=wrap;connectable=0;fillColor=none;top=0;left=0;bottom=0;right=0;overflow=hidden;" parent="gVkcCGGmK2Fdc83e79nt-39" vertex="1">
          <mxGeometry x="400" width="100" height="75" as="geometry" />
        </mxCell>
        <mxCell id="gVkcCGGmK2Fdc83e79nt-51" value="location_end" style="shape=partialRectangle;html=1;whiteSpace=wrap;connectable=0;fillColor=none;top=0;left=0;bottom=0;right=0;overflow=hidden;" parent="gVkcCGGmK2Fdc83e79nt-39" vertex="1">
          <mxGeometry x="500" width="100" height="75" as="geometry" />
        </mxCell>
        <mxCell id="gVkcCGGmK2Fdc83e79nt-44" value="" style="shape=partialRectangle;html=1;whiteSpace=wrap;collapsible=0;dropTarget=0;pointerEvents=0;fillColor=none;top=0;left=0;bottom=0;right=0;points=[[0,0.5],[1,0.5]];portConstraint=eastwest;" parent="gVkcCGGmK2Fdc83e79nt-38" vertex="1">
          <mxGeometry y="95" width="600" height="75" as="geometry" />
        </mxCell>
        <mxCell id="gVkcCGGmK2Fdc83e79nt-45" value="1" style="shape=partialRectangle;html=1;whiteSpace=wrap;connectable=0;fillColor=none;top=0;left=0;bottom=0;right=0;overflow=hidden;" parent="gVkcCGGmK2Fdc83e79nt-44" vertex="1">
          <mxGeometry width="100" height="75" as="geometry" />
        </mxCell>
        <mxCell id="gVkcCGGmK2Fdc83e79nt-46" value="1" style="shape=partialRectangle;html=1;whiteSpace=wrap;connectable=0;fillColor=none;top=0;left=0;bottom=0;right=0;overflow=hidden;" parent="gVkcCGGmK2Fdc83e79nt-44" vertex="1">
          <mxGeometry x="100" width="100" height="75" as="geometry" />
        </mxCell>
        <mxCell id="gVkcCGGmK2Fdc83e79nt-47" value="03.01.2020" style="shape=partialRectangle;html=1;whiteSpace=wrap;connectable=0;fillColor=none;top=0;left=0;bottom=0;right=0;overflow=hidden;" parent="gVkcCGGmK2Fdc83e79nt-44" vertex="1">
          <mxGeometry x="200" width="100" height="75" as="geometry" />
        </mxCell>
        <mxCell id="gVkcCGGmK2Fdc83e79nt-48" value="30.01.2020" style="shape=partialRectangle;html=1;whiteSpace=wrap;connectable=0;fillColor=none;top=0;left=0;bottom=0;right=0;overflow=hidden;" parent="gVkcCGGmK2Fdc83e79nt-44" vertex="1">
          <mxGeometry x="300" width="100" height="75" as="geometry" />
        </mxCell>
        <mxCell id="gVkcCGGmK2Fdc83e79nt-50" value="55.1233,42,2334" style="shape=partialRectangle;html=1;whiteSpace=wrap;connectable=0;fillColor=none;top=0;left=0;bottom=0;right=0;overflow=hidden;" parent="gVkcCGGmK2Fdc83e79nt-44" vertex="1">
          <mxGeometry x="400" width="100" height="75" as="geometry" />
        </mxCell>
        <mxCell id="gVkcCGGmK2Fdc83e79nt-52" value="&lt;span&gt;75.233,18,2334&lt;/span&gt;" style="shape=partialRectangle;html=1;whiteSpace=wrap;connectable=0;fillColor=none;top=0;left=0;bottom=0;right=0;overflow=hidden;" parent="gVkcCGGmK2Fdc83e79nt-44" vertex="1">
          <mxGeometry x="500" width="100" height="75" as="geometry" />
        </mxCell>
        <mxCell id="gVkcCGGmK2Fdc83e79nt-53" style="shape=partialRectangle;html=1;whiteSpace=wrap;collapsible=0;dropTarget=0;pointerEvents=0;fillColor=none;top=0;left=0;bottom=0;right=0;points=[[0,0.5],[1,0.5]];portConstraint=eastwest;" parent="gVkcCGGmK2Fdc83e79nt-38" vertex="1">
          <mxGeometry y="170" width="600" height="75" as="geometry" />
        </mxCell>
        <mxCell id="gVkcCGGmK2Fdc83e79nt-54" value="2" style="shape=partialRectangle;html=1;whiteSpace=wrap;connectable=0;fillColor=none;top=0;left=0;bottom=0;right=0;overflow=hidden;" parent="gVkcCGGmK2Fdc83e79nt-53" vertex="1">
          <mxGeometry width="100" height="75" as="geometry" />
        </mxCell>
        <mxCell id="gVkcCGGmK2Fdc83e79nt-55" value="1" style="shape=partialRectangle;html=1;whiteSpace=wrap;connectable=0;fillColor=none;top=0;left=0;bottom=0;right=0;overflow=hidden;" parent="gVkcCGGmK2Fdc83e79nt-53" vertex="1">
          <mxGeometry x="100" width="100" height="75" as="geometry" />
        </mxCell>
        <mxCell id="gVkcCGGmK2Fdc83e79nt-56" value="25.02.2020" style="shape=partialRectangle;html=1;whiteSpace=wrap;connectable=0;fillColor=none;top=0;left=0;bottom=0;right=0;overflow=hidden;" parent="gVkcCGGmK2Fdc83e79nt-53" vertex="1">
          <mxGeometry x="200" width="100" height="75" as="geometry" />
        </mxCell>
        <mxCell id="gVkcCGGmK2Fdc83e79nt-57" value="30.03.2020" style="shape=partialRectangle;html=1;whiteSpace=wrap;connectable=0;fillColor=none;top=0;left=0;bottom=0;right=0;overflow=hidden;" parent="gVkcCGGmK2Fdc83e79nt-53" vertex="1">
          <mxGeometry x="300" width="100" height="75" as="geometry" />
        </mxCell>
        <mxCell id="gVkcCGGmK2Fdc83e79nt-58" value="&lt;span&gt;75.233,18,2334&lt;/span&gt;" style="shape=partialRectangle;html=1;whiteSpace=wrap;connectable=0;fillColor=none;top=0;left=0;bottom=0;right=0;overflow=hidden;" parent="gVkcCGGmK2Fdc83e79nt-53" vertex="1">
          <mxGeometry x="400" width="100" height="75" as="geometry" />
        </mxCell>
        <mxCell id="gVkcCGGmK2Fdc83e79nt-59" value="&lt;span&gt;12.233,33,2334&lt;/span&gt;" style="shape=partialRectangle;html=1;whiteSpace=wrap;connectable=0;fillColor=none;top=0;left=0;bottom=0;right=0;overflow=hidden;" parent="gVkcCGGmK2Fdc83e79nt-53" vertex="1">
          <mxGeometry x="500" width="100" height="75" as="geometry" />
        </mxCell>
        <mxCell id="3XWgMG7kiB8M6Zncehld-1" value="&lt;span style=&quot;font-size: 20px&quot;&gt;Продавец может прописывать формулу цены лодки в зависимости от срока аренды&amp;nbsp;&lt;/span&gt;" style="text;html=1;align=center;verticalAlign=middle;resizable=0;points=[];autosize=1;" vertex="1" parent="1">
          <mxGeometry x="1210" y="137.5" width="800" height="20" as="geometry" />
        </mxCell>
      </root>
    </mxGraphModel>
  </diagram>
</mxfile>
